<?xml version="1.0" encoding="UTF-8"?><svg id="Layer_2" xmlns="http://www.w3.org/2000/svg" xmlns:xlink="http://www.w3.org/1999/xlink" viewBox="0 0 79.04 37.55"><defs><style>.cls-1{fill:url(#linear-gradient);}.cls-1,.cls-2,.cls-3,.cls-4,.cls-5,.cls-6,.cls-7,.cls-8,.cls-9,.cls-10{stroke-width:0px;}.cls-2{fill:url(#linear-gradient-6);}.cls-3{fill:url(#linear-gradient-5);}.cls-4{fill:url(#linear-gradient-2);}.cls-5{fill:url(#linear-gradient-7);}.cls-6{fill:url(#linear-gradient-3);}.cls-7{fill:url(#linear-gradient-9);}.cls-8{fill:url(#linear-gradient-8);}.cls-9{fill:url(#linear-gradient-10);}.cls-10{fill:url(#linear-gradient-4);}</style><linearGradient id="linear-gradient" x1="43.84" y1="-7.33" x2="43.84" y2="22.3" gradientUnits="userSpaceOnUse"><stop offset="0" stop-color="#ffef14"/><stop offset="1" stop-color="#f9c22d"/></linearGradient><linearGradient id="linear-gradient-2" x1="11.22" y1="-7.33" x2="11.22" y2="22.3" xlink:href="#linear-gradient"/><linearGradient id="linear-gradient-3" x1="19.68" y1="-7.33" x2="19.68" y2="22.3" xlink:href="#linear-gradient"/><linearGradient id="linear-gradient-4" x1="48.35" y1="-7.33" x2="48.35" y2="22.3" xlink:href="#linear-gradient"/><linearGradient id="linear-gradient-5" x1="6.37" x2="6.37" y2="22.3" xlink:href="#linear-gradient"/><linearGradient id="linear-gradient-6" x1="73.45" y1="-7.33" x2="73.45" y2="22.3" xlink:href="#linear-gradient"/><linearGradient id="linear-gradient-7" x1="35.8" y1="-7.33" x2="35.8" y2="22.3" xlink:href="#linear-gradient"/><linearGradient id="linear-gradient-8" x1="57.75" y1="-7.33" x2="57.75" y2="22.3" xlink:href="#linear-gradient"/><linearGradient id="linear-gradient-9" x1="64.06" y1="-7.33" x2="64.06" y2="22.3" xlink:href="#linear-gradient"/><linearGradient id="linear-gradient-10" x1="27.73" y1="-7.33" x2="27.73" y2="22.3" xlink:href="#linear-gradient"/></defs><g id="Layer_1-2"><path class="cls-1" d="m76.87,14.46c-.62.23-1.19.45-1.76.66-12.2,4.45-24.39,8.91-36.59,13.36-3.14,1.15-6.28,2.3-9.43,3.42-1.69.6-3.42.84-5.2.46-2.22-.47-3.91-1.73-5.06-3.65-1.57-2.62-3.03-5.31-4.54-7.96-1.11-1.96-2.22-3.93-3.33-5.9-.24-.43-.22-.48.26-.48,3.04,0,6.09,0,9.13,0,.34,0,.51.15.66.42,1.48,2.66,2.97,5.31,4.46,7.96,1.31,2.32,2.92,2.62,5.05,2.33,1.87-.26,3.65-.92,5.46-1.43,8.95-2.5,17.89-5.02,26.84-7.53,1.87-.53,3.74-1.05,5.61-1.58.38-.11.76-.17,1.16-.17,2.23,0,4.46,0,6.69,0,.17,0,.36-.05.59.1Zm-58.93,5.15c.71,0,1.27-.54,1.27-1.24,0-.67-.56-1.24-1.23-1.25-.69-.01-1.23.51-1.25,1.21-.02.74.48,1.27,1.2,1.28Zm4.84,8.58c.7,0,1.26-.56,1.25-1.26,0-.67-.57-1.23-1.24-1.23-.68,0-1.24.55-1.25,1.22,0,.72.52,1.26,1.24,1.26Zm-2.41-6.75c-.68,0-1.25.54-1.25,1.21,0,.68.59,1.28,1.25,1.28.69,0,1.24-.57,1.23-1.28,0-.71-.51-1.2-1.23-1.21Z"/><path class="cls-4" d="m17.58,37.55c-.78,0-1.57-.02-2.35,0-.35.01-.54-.11-.71-.42-1.59-2.89-3.2-5.76-4.8-8.64-2.5-4.5-5-9-7.5-13.49-.04-.08-.08-.16-.13-.24-.2-.32-.08-.41.26-.41,1.64,0,3.28,0,4.93,0,.29,0,.47.1.61.36,1.94,3.5,3.89,7,5.83,10.5,2.18,3.92,4.36,7.84,6.54,11.76.32.58.33.58-.36.58-.77,0-1.54,0-2.3,0Z"/><path class="cls-6" d="m18.25,4.09c-1.05,0-2.11,0-3.16,0-.83,0-1.19-.57-.87-1.34.07-.17.19-.28.36-.3.22-.03.45-.06.67-.07,1.91,0,3.83-.01,5.74,0,1.29,0,2.48.3,3.42,1.27.55.56.82,1.22.83,1.99,0,.66-.02,1.33,0,1.99.05,1.36-.62,2.28-1.74,2.94-.62.37-1.32.55-2.03.56-1.58.02-3.16.1-4.74-.05-.83-.08-1.52-.47-2.06-1.1-.74-.86-.71-2.13.08-2.97.61-.65,1.37-1.03,2.28-1.04,1.85-.01,3.71,0,5.56-.01.53,0,.6-.08.53-.61-.09-.65-.8-1.22-1.63-1.24-1.08-.03-2.17,0-3.25,0,0,0,0,0,0,0Zm1.06,5.39c.41,0,.81,0,1.22,0,.41,0,.81.01,1.21-.07.61-.13,1.1-.44,1.35-1.02.22-.53.05-.76-.51-.77-1.69,0-3.37,0-5.06,0-.17,0-.33,0-.5.03-.43.08-.77.42-.8.81-.03.38.24.77.66.92.23.08.47.11.71.11.57,0,1.14,0,1.72,0Z"/><path class="cls-10" d="m49.61,11.14c-1-.05-2.27.11-3.53-.08-1.39-.2-2.51-.83-3.1-2.18-.12-.28-.17-.58-.18-.88-.02-.81-.03-1.62,0-2.44.05-1.36.86-2.19,2.01-2.76.59-.29,1.23-.41,1.88-.42,1.52-.01,3.04-.1,4.56.05,1.3.13,2.41,1.08,2.59,2.22.16.99-.3,1.71-1.06,2.28-.68.52-1.48.66-2.3.66-1.69.01-3.37,0-5.06,0-.56,0-.69.2-.5.73.22.59.69.9,1.27,1.04.31.08.62.1.94.1,1.97,0,3.95,0,5.92,0,.64,0,.83.19.84.78,0,.62-.21.87-.83.87-1.07.01-2.14,0-3.47,0Zm-1.73-5.19c.81,0,1.62,0,2.44,0,.25,0,.51-.03.76-.09.47-.11.75-.47.73-.9-.02-.43-.38-.83-.85-.85-1.55-.05-3.1-.07-4.64.01-.73.04-1.36.68-1.44,1.29-.04.37.06.55.48.54.84-.03,1.68,0,2.53,0Z"/><path class="cls-3" d="m7.78,1.73c-1.24,0-2.47,0-3.71,0-.38,0-.75.02-1.1.21-.56.3-.89.73-.89,1.4.02,1.48,0,2.95,0,4.43,0,.84.5,1.45,1.34,1.61.34.07.68.1,1.03.1,2.44,0,4.88,0,7.32,0,.79,0,1.15.58.82,1.3-.08.16-.2.27-.37.3-.18.03-.36.06-.54.06-2.55,0-5.09.01-7.64,0-.97,0-1.88-.23-2.68-.8C.59,9.76.05,9.04.03,8.05,0,6.41-.02,4.76.03,3.13.08,1.74.98.94,2.16.4,2.79.11,3.47.03,4.15.03c2.52-.01,5.03,0,7.55,0,.84,0,1.06.25.98,1.07-.03.35-.2.56-.56.6-.19.02-.39.04-.59.04-1.25,0-2.5,0-3.75,0Z"/><path class="cls-2" d="m73.34,11.14c-.65-.02-1.42.03-2.19-.07-1.63-.2-3.01-1.35-3.2-2.8-.13-1-.14-2.02,0-3.02.22-1.56,1.35-2.31,2.75-2.71.39-.11.8-.16,1.21-.16,1.25,0,2.5-.08,3.75.05,1,.1,1.85.52,2.55,1.23.45.46.72,1.02.77,1.69.07.84.05,1.68.02,2.53-.05,1.51-.95,2.38-2.25,2.92-.58.24-1.19.32-1.81.33-.5,0-.99,0-1.61,0Zm.15-7.04s0,0,0,0c-.65,0-1.3-.03-1.94,0-.94.06-1.55.72-1.55,1.65,0,.66,0,1.32,0,1.98,0,.89.51,1.54,1.39,1.65,1.39.17,2.79.17,4.18-.01.87-.11,1.36-.76,1.36-1.63,0-.65,0-1.29,0-1.94,0-.98-.62-1.65-1.6-1.7-.62-.03-1.23,0-1.85,0Z"/><path class="cls-5" d="m37.21,4.09c-1.02,0-2.05,0-3.07,0-.47,0-.89.11-1.26.41-.36.29-.58.65-.57,1.12,0,.71,0,1.41,0,2.12,0,.87.5,1.48,1.36,1.64.31.06.63.09.94.09,1.96,0,3.92,0,5.88,0,.65,0,.84.18.85.77.01.64-.21.89-.85.89-2.11,0-4.22.02-6.33,0-1.13-.02-2.17-.36-3.01-1.16-.58-.56-.91-1.22-.89-2.05.01-.71.03-1.42,0-2.12-.06-1.31.6-2.19,1.68-2.82.71-.42,1.49-.58,2.29-.59,2.08-.02,4.16-.02,6.24,0,.68,0,.9.25.87.91-.02.57-.23.77-.87.78-1.08.02-2.17,0-3.25,0h0Z"/><path class="cls-8" d="m55.34,4.4c0-1.14,0-2.29,0-3.43,0-.35-.01-.75.41-.86.49-.13,1.01-.19,1.48.12.13.09.17.25.18.4.02.16.02.33.02.5q0,1.25,1.28,1.25c.26,0,.51,0,.77.02.57.06.69.23.68.89,0,.56-.17.76-.7.79-.51.03-1.02.03-1.54,0-.38-.01-.5.14-.49.51.02,1.07,0,2.14,0,3.21,0,.83.54,1.45,1.36,1.6.24.04.48.06.72.09.49.05.63.2.65.73.01.64-.12.88-.62.91-1.88.12-4.32-1.07-4.21-3.56.05-1.05,0-2.11,0-3.16Z"/><path class="cls-7" d="m63.69,6.22c0,.51,0,1.02,0,1.53,0,.85.5,1.46,1.34,1.63.23.05.48.07.72.09.54.04.72.24.72.81,0,.56-.21.84-.72.84-1.38,0-2.61-.4-3.52-1.52-.39-.49-.58-1.04-.58-1.67,0-2.35,0-4.69,0-7.04,0-.68.17-.85.85-.87.2,0,.39,0,.59.02.39.04.59.26.6.65,0,.39.02.78,0,1.17-.03.41.15.53.53.51.48-.02.96-.02,1.45,0,.6.03.81.25.8.85,0,.59-.21.82-.81.85-.48.02-.96.03-1.45,0-.38-.02-.55.1-.53.51.03.54,0,1.08,0,1.62Z"/><path class="cls-9" d="m28.78,5.6c0,1.55,0,3.1,0,4.65,0,.7-.18.87-.89.89-.15,0-.3,0-.45,0-.45-.01-.7-.23-.72-.69,0-.18-.02-.36-.02-.54,0-2.89,0-5.78,0-8.67,0-1.09.18-1.26,1.27-1.21.61.03.81.23.81.83,0,1.58,0,3.16,0,4.74Z"/></g></svg>