<?xml version="1.0" encoding="UTF-8"?><svg id="Layer_2" xmlns="http://www.w3.org/2000/svg" viewBox="0 0 75.43 22.39"><defs><style>.cls-1{fill:#ec1c24;fill-rule:evenodd;stroke-width:0px;}</style></defs><g id="Layer_1-2"><path class="cls-1" d="m11.59,15.53h6.4c-.14,2.12-.99,3.8-2.54,5.02-1.56,1.22-3.62,1.83-6.2,1.83-2.85,0-5.11-.77-6.76-2.33-1.66-1.55-2.49-3.66-2.49-6.32s.82-4.77,2.46-6.3c1.64-1.54,3.88-2.31,6.74-2.31,2.59,0,4.67.61,6.25,1.81,1.58,1.21,2.41,2.84,2.49,4.89h-6.4c-.07-.76-.3-1.33-.68-1.7-.38-.37-.94-.55-1.69-.55-.92,0-1.61.33-2.04,1-.44.67-.65,1.71-.65,3.15s.21,2.51.63,3.19c.42.67,1.09,1.01,2.01,1.01.74,0,1.32-.2,1.74-.6.42-.41.67-1,.75-1.79h0Zm13.45-3.58h5.7c-.07-1-.34-1.75-.83-2.25-.49-.5-1.18-.75-2.09-.75-.84,0-1.51.26-1.99.79-.49.53-.75,1.27-.79,2.21h0Zm5.37,5.1h6.13c-.45,1.75-1.42,3.08-2.92,3.98-1.51.9-3.49,1.36-5.96,1.36-2.76,0-4.96-.77-6.58-2.3-1.62-1.53-2.44-3.6-2.44-6.2s.83-4.84,2.49-6.41c1.66-1.56,3.91-2.35,6.77-2.35s5.1.85,6.72,2.56c1.62,1.7,2.43,4.07,2.43,7.1v.39h-12.01c.03,1.03.3,1.82.81,2.38.51.56,1.23.83,2.15.83.62,0,1.14-.12,1.56-.34.41-.23.7-.56.84-.99h0Zm8.3,4.76V0h6.46v21.81h-6.46Zm9.11,0V0h6.46v21.81h-6.46Zm14.57-8.07c0,1.49.21,2.56.62,3.22.41.65,1.08.97,2.02.97s1.62-.33,2.04-.99c.42-.66.63-1.72.63-3.2s-.21-2.53-.63-3.18c-.42-.65-1.09-.97-2.04-.97s-1.61.32-2.02.96c-.41.64-.62,1.71-.62,3.19h0Zm-6.46,0c0-2.67.81-4.77,2.42-6.3,1.62-1.54,3.85-2.31,6.68-2.31s5.06.77,6.67,2.31c1.61,1.53,2.42,3.64,2.42,6.3s-.81,4.8-2.42,6.34c-1.62,1.54-3.85,2.31-6.67,2.31s-5.05-.77-6.67-2.31c-1.62-1.54-2.44-3.66-2.44-6.34h0Z"/><path class="cls-1" d="m73.14,1.63c.38,0,.76.1,1.13.3.36.2.65.48.86.85.21.37.31.75.31,1.15s-.1.78-.3,1.14c-.2.37-.48.65-.85.85-.36.2-.75.3-1.14.3s-.78-.1-1.15-.3c-.36-.2-.65-.49-.85-.85-.2-.36-.3-.74-.3-1.14s.1-.78.31-1.15c.21-.37.49-.65.86-.85.37-.2.74-.3,1.13-.3h0Zm0,.38c-.32,0-.64.08-.95.25-.31.16-.54.4-.72.71-.17.31-.26.63-.26.96s.08.65.25.95c.17.31.41.54.71.71.3.17.62.26.95.26s.65-.09.95-.26c.3-.17.54-.41.71-.71.17-.3.25-.62.25-.95s-.09-.65-.26-.96c-.17-.31-.41-.55-.72-.71-.31-.16-.62-.25-.94-.25h0Zm-1.01,3.19v-2.47h.85c.29,0,.5.02.63.07.13.05.24.12.31.24.08.11.12.23.12.36,0,.18-.06.34-.19.47-.13.13-.3.21-.51.22.09.04.16.08.21.13.1.09.22.26.37.49l.3.48h-.48l-.22-.39c-.17-.31-.31-.5-.42-.58-.07-.06-.18-.08-.32-.08h-.23v1.05h-.4Zm.4-1.39h.48c.23,0,.39-.04.47-.1.08-.07.13-.16.13-.27,0-.07-.02-.14-.06-.2-.04-.06-.1-.1-.17-.13-.07-.03-.2-.04-.4-.04h-.45v.74h0Z"/></g></svg>