<?xml version="1.0" encoding="UTF-8"?><svg id="Layer_2" xmlns="http://www.w3.org/2000/svg" viewBox="0 0 80.47 89.68"><defs><style>.cls-1{fill:#ed3237;}.cls-1,.cls-2,.cls-3{stroke-width:0px;}.cls-3{fill:#f4f2f3;}</style></defs><g id="Layer_1-2"><path class="cls-2" d="m0,81.73v-8.72h3.49c1.19,0,2.05.32,2.59.97.54.64.81,1.63.81,2.96v.88c0,1.32-.27,2.3-.8,2.95-.54.64-1.4.97-2.59.97H0Zm3.17-1.99c.41,0,.71-.12.91-.36.2-.24.3-.65.3-1.23v-1.56c0-.59-.1-1-.3-1.23s-.51-.35-.92-.35h-.63v4.73h.64Z"/><path class="cls-2" d="m8.44,80.97c-.59-.64-.89-1.58-.89-2.82v-1.56c0-1.24.3-2.18.89-2.82.59-.64,1.47-.96,2.63-.96s2.04.32,2.64.96c.59.64.89,1.58.89,2.82v1.56c0,1.24-.3,2.18-.89,2.82-.59.64-1.47.96-2.63.96s-2.04-.32-2.64-.96Zm3.62-2.55v-2.1c0-.93-.33-1.4-.98-1.4s-1,.47-1,1.4v2.1c0,.93.33,1.4,1,1.4s.98-.47.98-1.4Z"/><path class="cls-2" d="m16.15,81.08c-.54-.57-.8-1.47-.8-2.7v-5.37h2.52v5.57c0,.83.3,1.24.91,1.24s.9-.41.9-1.24v-5.57h2.52v5.36c0,1.24-.27,2.14-.8,2.71-.54.57-1.41.86-2.63.86s-2.09-.28-2.62-.85Z"/><path class="cls-2" d="m23.17,81.73v-8.72h3.44c.89,0,1.59.18,2.09.55.5.36.76.89.76,1.59v.04c0,.95-.43,1.59-1.29,1.92h0c.54.11.95.34,1.23.69.28.35.42.8.42,1.34v.06c0,.82-.26,1.45-.77,1.89-.51.44-1.26.66-2.23.66h-3.63Zm3.18-5.29c.3,0,.52-.06.66-.19.13-.13.2-.33.2-.62,0-.26-.07-.45-.2-.57-.13-.12-.35-.18-.64-.18h-.74v1.56h.73Zm.05,3.42c.33,0,.56-.07.71-.21.14-.14.22-.36.22-.67s-.08-.51-.23-.64c-.15-.13-.4-.2-.73-.2h-.74v1.72h.77Z"/><path class="cls-2" d="m35.9,81.73h-5.31v-8.72h2.52v6.65h2.79v2.08Z"/><path class="cls-2" d="m42.23,81.73h-5.67v-8.72h5.59v2.02h-3.07v1.36h2.73v1.85h-2.73v1.45h3.15v2.04Z"/><path class="cls-2" d="m45.13,81.73v-11.68h4.6c1.19,0,2.13.24,2.8.73s1.01,1.2,1.01,2.13v.05c0,1.28-.58,2.13-1.73,2.57v.02c.72.14,1.27.44,1.64.91.37.47.56,1.07.56,1.79v.08c0,1.1-.34,1.94-1.03,2.53-.69.59-1.68.88-2.99.88h-4.86Zm4.25-7.08c.41,0,.7-.09.88-.26.18-.17.27-.45.27-.82,0-.35-.09-.6-.27-.76-.18-.16-.47-.24-.86-.24h-.99v2.09h.97Zm.06,4.58c.44,0,.76-.09.95-.28.19-.19.29-.49.29-.89s-.1-.69-.31-.86-.53-.27-.98-.27h-.99v2.31h1.04Z"/><path class="cls-2" d="m55.98,80.86c-.72-.76-1.07-1.96-1.07-3.62v-7.19h3.37v7.45c0,1.11.41,1.66,1.22,1.66s1.21-.55,1.21-1.66v-7.45h3.37v7.17c0,1.65-.36,2.86-1.07,3.63-.72.76-1.89,1.15-3.52,1.15s-2.79-.38-3.51-1.14Z"/><path class="cls-2" d="m72.48,81.73h-7.11v-11.68h3.37v8.9h3.73v2.78Z"/><path class="cls-2" d="m80.47,81.73h-7.11v-11.68h3.37v8.9h3.73v2.78Z"/><path class="cls-2" d="m26.08,89.05c-.37-.42-.56-1.05-.56-1.89v-.96c0-1.68.74-2.52,2.23-2.52.74,0,1.29.2,1.65.6.36.4.55.94.56,1.63v.09h-1.33v-.11c-.01-.34-.08-.61-.21-.79-.13-.19-.35-.28-.66-.28-.59,0-.89.42-.89,1.26v1.2c0,.42.08.74.23.95.15.21.37.31.66.31.57,0,.87-.35.88-1.05v-.12h1.33v.1c-.01.69-.19,1.24-.55,1.63-.36.39-.91.59-1.67.59s-1.29-.21-1.66-.63Z"/><path class="cls-2" d="m34.33,89.56h-3.6v-5.76h3.55v1.1h-2.22v1.21h1.96v1.05h-1.96v1.3h2.26v1.11Z"/><path class="cls-2" d="m36.32,89.56h-1.29v-5.76h1.67l.99,3.14.09.33h.02l.09-.33.99-3.14h1.67v5.76h-1.29v-3.09l.02-.69h0l-.11.29-.89,2.73h-.95l-.9-2.73-.09-.29h-.02l.02.69v3.09Z"/><path class="cls-2" d="m45.16,89.56h-3.6v-5.76h3.55v1.1h-2.22v1.21h1.96v1.05h-1.96v1.3h2.26v1.11Z"/><path class="cls-2" d="m47.16,89.56h-1.3v-5.76h1.43l1.57,3.15.22.44h0v-.51s0-3.08,0-3.08h1.3v5.76h-1.43l-1.57-3.14-.21-.43h0v3.58Z"/><path class="cls-2" d="m53.6,89.56h-1.33v-4.65h-1.35v-1.12h4.03v1.12h-1.35v4.65Z"/><circle class="cls-1" cx="40.24" cy="39.14" r="25.68"/><path class="cls-2" d="m75.81,39.7c-.02-.1-.03-.23-.14-.26-.12-.04-.18.08-.24.16-.14.17-.27.34-.41.51-.1.05-.16,0-.23-.07-.01-.02-.01-.04-.01-.06-.07-.17-.15-.24-.34-.11-.47.31-.95.62-1.56.56-.48.14-.87.38-1.03.9-.13.44-.29.54-.76.56-.33.02-.66-.06-1,0,0,.01-.01.02-.01.04h0c-.11-.23-.33-.31-.52-.42-.41-.34-.64-.8-.85-1.28-.02,0-.03-.02-.05-.03-.31-.84-.24-1.71-.19-2.58.03-.44.09-.88,0-1.32,0-.02,0-.04,0-.06,0-.09-.01-.17-.04-.25-.06-.42-.3-.78-.53-1.13-.04-.22-.23-.33-.36-.48-.23-.15-.43-.39-.75-.33-.39-.14-.79-.22-1.2-.22-.09-.02-.17-.05-.26-.08-.04-.01-.08-.02-.12-.02-.1,0-.2,0-.31,0-.8.12-1.53.4-2.17.92-.16.13-.34.25-.37.48.04.02.09.04.13.07-.02,0-.05,0-.08-.03-.23.32-.47.59-.91.47,0-.02-.01-.05-.02-.07-.11-.17-.29-.21-.46-.27-.7-.26-1.39-.52-2.06-.85-.91-.44-1.71-1.06-2.56-1.6-.16-.1-.3-.26-.52-.22,0,0-.02,0-.02.01-.05-.05-.04-.08.04-.13.18-.11.39-.16.53-.33.03-.02.06-.03.09-.05.88-.51,1.71-1.1,2.55-1.66.21-.14.29-.33.24-.57-.2-.93-.4-1.86-.6-2.79-.07-.32-.28-.52-.57-.64-.45-.18-.91-.31-1.38-.41-1.82-.4-3.68-.4-5.53-.46-.16,0-.3.03-.48.15.83.83,1.77,1.51,2.62,2.3.1.22.21.41.49.42.02.02.04.03.07.05.06.09.12.19.24.21.24.17.2.32-.04.43-.27.13-.55.23-.82.36-.33.16-.6.09-.85-.16-.44-.43-.89-.84-1.34-1.26-.86-.79-1.77-1.5-2.92-1.81-.01-.01-.02-.02-.04-.02-.11-.07-.23-.12-.37-.12-.33-.04-.65-.2-.98-.03-.01,0-.02-.02-.03-.03-.29-.07-.54.07-.79.17-2.02.76-3.75,1.92-5.21,3.52-.55.6-1.08,1.21-1.55,1.87-.19.26-.38.31-.67.18-.34-.16-.7-.28-1.05-.43-1.36-.58-2.58-1.38-3.72-2.29,1.02-.58,1.97-1.26,2.96-1.89.36-.23.45-.5.36-.89-.16-.71-.36-1.42-.45-2.14-.1-.76-.53-1.08-1.21-1.28-2.11-.63-4.28-.6-6.45-.68-.13,0-.3.02-.34.12-.06.14.11.22.2.3.83.71,1.67,1.42,2.5,2.13,0,.02,0,.04,0,.07.07.25.31.34.46.52.08.09.18.17.07.3-.3.38-1.25.48-1.61.15-.46-.43-.91-.86-1.37-1.29-.91-.84-1.93-1.47-3.11-1.84-.47-.15-.91-.14-1.38,0-1.65.51-3.11,1.35-4.45,2.43-.71.62-1.39,1.27-2,1.99-.31.42-.62.83-.94,1.24-.01.04-.03.07-.03.11,0,0,0,0,0,0-.16.08-.19.3-.35.39-.54.65-.82,1.46-1.28,2.16-.28.44-.43.99-1,1.19-.42.15-.81.4-1.28.42-.04.02-.07.03-.11.05-1.14.35-2.29.7-3.44,1.03-.52.15-.63.09-.56-.45.08-.67.14-1.34.28-2,.01-.4.06-.8.14-1.19.03-.15.02-.29-.12-.38-.14-.1-.26-.02-.39.06-.27.17-.47.41-.7.61-.35.34-.64.73-.92,1.13-.58.71-1.13,1.45-1.65,2.2-.28.55-.56,1.1-.84,1.65,0,.03-.02.05-.02.07-.42.7-.06,1.24.35,1.8.37.51.75.95,1.46.72.06-.02.12-.06.18-.07,1.19-.24,2.37-.49,3.56-.73.82-.17,1.62-.41,2.45-.46.19.13.13.3.08.48h0c-.07.08-.11.18-.08.29,0,0,0,.01.01.02-.14.04-.12.19-.14.3,0,.04,0,.08,0,.12-.1.28-.15.56-.18.85-.03.05-.06.09-.09.14-.25.82-.39,1.66-.62,2.48-.16.56-.05,1.08.19,1.59.19.4.3.83.29,1.28,0,.53-.22,1.02-.3,1.52-.17,1.1-.23,2.22-.25,3.34-.08,1.51-.57,2.87-1.53,4.05-.18.22-.36.41-.23.73.06.15-.08.27-.18.37-.16.16-.33.29-.5.44-.6.65-1.1,1.36-1.39,2.2-.16.47-.07.61.41.61,1.03,0,2.06-.03,3.09-.09.47,0,.94.02,1.41.03.05-.01.1-.02.15-.03.23-.11.2-.32.19-.51-.02-.49.18-.84.61-1.09.32-.18.52-.44.58-.83.1-.65.15-1.31.29-1.96.27-1.23.73-2.36,1.5-3.36.15-.27.37-.47.56-.71,0-.02,0-.04,0-.06.06-.03.13-.07.18-.12,1.08-1.01,2.35-1.64,3.82-1.85.41-.06.71.07.94.41.23.34.43.71.5,1.1.16.87,1.27,1.21,2.07,1.1.02-.02.03-.03.05-.05.26.03.53.03.79,0,.43.01.84-.1,1.25-.17.16-.02.3-.15.48-.13.31-.07.65-.09.86-.39.13-.09.26-.17.39-.26.05,0,.1,0,.16,0,.35-.1.6-.37.88-.57.18-.13.31-.12.41.08.2.39.52.65.87.88.5.34.93.76,1.37,1.17.21.19.23.36.03.56-.26.26-.49.55-.73.82-.35.4-.77.76-.95,1.28-.18.53.02.85.58.87.63.03,1.26,0,1.88,0,.35,0,.56-.17.65-.5.18-.61.38-1.21.68-1.74.02.4-.04.83-.1,1.25-.18,1.38-.57,2.69-1.5,3.78-.13.15-.27.32-.26.52.03.42-.22.68-.5.93-.67.61-1.17,1.34-1.51,2.17-.27.67-.07.97.65.97.82,0,1.64-.11,2.47-.08.51.02,1.02.02,1.53,0,.51-.03.68-.2.67-.71,0-.42.15-.74.5-.96.51-.31.72-.76.74-1.34.03-.63.15-1.25.3-1.86.06-.27.2-.31.42-.16.27.18.41.43.48.73.15.67.27.76.96.77,1.22,0,2.43,0,3.65,0,.87,0,.98-.18.66-1-.32-.84-.95-1.43-1.59-2.01-.18-.16-.33-.33-.33-.59,0-.23-.11-.42-.27-.59-.35-.38-.58-.83-.82-1.29-.16-.3-.1-.5.19-.68.85-.53,1.78-.81,2.76-.96.32-.05.56.08.75.33.26.35.47.73.57,1.15.13.55.48.85.99,1.01.34.11.69.16,1.03.23.44.1.9.19,1.14.66.12.23.38.27.62.27.86.01,1.73.02,2.59,0,.55-.01.69-.27.47-.77-.15-.34-.36-.64-.58-.93-.11-.14-.17-.27.01-.4.25-.18.51-.37.75-.57.12-.1.21-.07.29.06.26.48.69.78,1.11,1.09.41.31.8.63,1.16.99.22.22.22.41.03.64-.17.2-.37.37-.53.57-.38.46-.87.84-1.1,1.42-.23.58-.01.93.61.95.59.02,1.18.01,1.76,0,.46,0,.59-.11.73-.56.26-.87.63-1.69,1.14-2.44.27-.39.25-.55-.05-.92-.27-.33-.56-.66-.81-1.01-.07-.1-.2-.2-.06-.34,0,0,0,0,0,0,.04.07.1.13.2.12.32.29.64.59.95.88.06.07.06.18.17.21.08.08.15.17.23.25.09.15.19.29.28.44.51.8.91,1.65,1.06,2.6.03.08.06.17.09.26,0,.04-.01.09-.02.14,0,.06.02.11.06.16.08.53.19,1.05.25,1.58.04.34.21.55.5.69.42.21.65.54.69,1.01.04.46.15.56.62.56,1.38,0,2.77,0,4.15.01.14,0,.29,0,.41-.08.24-.26.06-.52-.04-.76-.31-.8-.88-1.43-1.51-1.99-.25-.13-.42-.3-.41-.61,0-.19-.09-.35-.21-.49-.27-.34-.52-.67-.73-1.06-.42-.78-.65-1.62-.84-2.47-.18-1.1-.19-2.21-.3-3.31-.05-.47-.17-.93-.27-1.38-.02-.1-.04-.22.06-.29.09-.05.17.02.25.07.08.05.15.1.22.16.57.48,1.2.87,1.87,1.21.71.17,1.23.58,1.58,1.22.04.07.09.13.15.18.04.03.09.06.13.1.05.09.12.16.18.24h0c.31.58.54,1.18.66,1.83.06.32.03.66.29.91.32.23.66.44.98.67.07.05.15.11.25.05,0,0,0,0,0,0-.02.06-.03.12.05.14.36.26.57.63.79.99.1.16.17.37.41.36,0,0,.01,0,.02,0,0,.18.15.2.27.26.16.08.29.16.38.32.15.28.39.41.7.39.55,0,1.1-.02,1.65.02.19-.02.38,0,.58.01.23.03.47.04.66-.12.05,0,.11-.02.16-.03.11-.17.07-.33-.01-.51-.2-.44-.48-.82-.78-1.19-.44-.4-.95-.68-1.5-.9-.59-.24-1.15-.55-1.56-1.08-.07-.06-.15-.12-.22-.18h0c-.03-.06-.07-.13-.1-.19-.47-.54-.8-1.13-.79-1.89.01-1.33-.1-2.66-.28-3.98-.19-1.4-.51-2.77-.87-4.12.02-.03.04-.07.04-.11-.25-1.11-.7-2.15-1.21-3.16-.05-.1-.12-.19-.24-.2.02-.02.03-.04.03-.07-.02-.19-.12-.34-.21-.5-.29-.51-.64-.98-.98-1.46-.26-.37-.25-.55.04-.91.25-.31.61-.43.95-.59.35-.07.65-.04.88.06.45.23.73.77.67,1.46-.11,1.09-.05,2.15.24,3.2.04.11.07.21.1.32.34.6.7,1.19,1.37,1.47.01.01.03.03.04.04.08.03.15.06.23.08.16.06.33.1.5.14.7.16,1.35,0,2.01-.18.17-.04.34-.07.51-.11.04,0,.08,0,.13,0,.31.12.62.24.93.36.03,0,.05,0,.08,0,.32-.06.64-.12.94-.25,1.31-.54,1.94-1.68,1.64-3Zm-64.27-3.75s0,0,0,0h0s.01,0,.02,0h-.01Zm1.14.55s0-.02,0-.03c0,0,.02.02.03.03-.01,0-.02,0-.03,0Zm13.45,12.31s0,0,0,0c0,0,0,0,0,0,0,0,0,0,0,0Zm1.26-.22s-.03-.02-.05-.03c.02,0,.03-.01.05-.02,0,.02,0,.04,0,.05Zm35.12-12.82s0,0,0,0c0,0,0,0,.01-.01,0,0,0,.01,0,.02Zm6.63,17.69s0,0,0,0c-.02-.01-.04-.03-.06-.04.02.01.04.03.06.04Zm4.05-12.73s-.03-.04-.05-.06c.02,0,.03,0,.05,0,0,.03,0,.05,0,.06Z"/><path class="cls-3" d="m64.94,42.54c-.05-.14-.07-.35-.24-.38-.19-.03-.27.17-.38.29-.07.08-.07.27-.23.22-.15-.04-.13-.21-.15-.33-.01-.09,0-.18-.01-.27-.04-.87-.14-1.72-.53-2.51-.4-.82-.87-1.61-1.72-2.02-.88-.43-1.81-.74-2.71-1.11-.25-.11-.35-.03-.39.23-.05.36-.13.72-.19,1.08-.03.21-.14.41-.34.41-.16,0-.17-.24-.2-.38-.14-.59-.37-1.14-.67-1.66-.56-.97-1.4-1.68-2.25-2.38-.33-.27-.63-.32-1-.1-.58.35-1.15.72-1.76,1.02-.78.38-1.34.86-1.44,1.82-.05.55-.09,1.04.15,1.56.4.85.76,1.72,1.13,2.58.15.34.16.68.07,1.03-.15.54-.3,1.08-.42,1.63-.26,1.11-.73,2.2-.26,3.37.14.34.17.4.47.19.47-.33.93-.68,1.35-1.07.28-.27.54-.26.82,0,.32.3.66.59.99.89.18.03.27.16.31.32.12.15.25.3.37.45.66.8,1.26,1.65,1.68,2.61-.11.13-.01.23.05.34.06.08.12.16.16.26.01.03.03.06.04.09.05.09.1.19.14.29.65,1.18,1.25,2.39,1.59,3.71.04.17.14.34.25.48.23.19.48.31.78.28.11-.02.23-.04.21-.2-.27-.59-.55-1.18-.7-1.82-.43-1.75-1.01-3.46-.94-5.3.08-1.95-.33-3.81-1.03-5.62-.3-.78-.56-1.58-.86-2.41.3.03.48.19.68.33.23.09.4.24.47.49l.06.07c.13.01.13.14.19.21.28.42.57.83.88,1.28.18-.42.33-.79.5-1.15.04-.1.04-.27.19-.26.15,0,.13.17.15.28.2.73.31,1.48.66,2.16.98,1.93,2.5,3.33,4.33,4.41.23.13.48.43.73.27.23-.15.1-.51.1-.77,0-1.7-.51-3.29-1.07-4.87Z"/><path class="cls-3" d="m54.8,31.74c1.03-.52,2.02-1.09,3.01-1.7.29-.18.41-.46.4-.8-.02-.38-.11-.75-.18-1.12-.14-.73-.4-.97-1.13-1.1-1.07-.19-2.14-.38-3.2-.57-.13-.02-.26-.05-.39-.04-.13.01-.27.04-.33.18-.06.15.05.24.15.33.06.05.12.1.19.14.91.57,1.79,1.18,2.69,1.76.12.07.26.12.32.3-.32.12-.64.22-.95.35-2.33,1-4.66,2-6.98,3.02-.23.1-.48.19-.65.4-.55.3-1.28.43-1.18,1.41-.15-.18-.24-.25-.27-.33-.16-.45-.47-.49-.88-.38-1.22.33-2.45.62-3.67.96-1.13.31-1.64,1.26-1.33,2.41.13.47.36.89.56,1.33.13.28.06.45-.26.5-.36.06-.72.15-1.08.21-.3.05-.29.21-.17.41.2.33.45.63.8.79.59.28,1.07.7,1.53,1.14.27.25.57.47.94.54.34.06.5.26.58.56.14.49.31.97.39,1.47.09.55.4.89.85,1.14.27.15.54.32.8.49.18.12.17.25-.05.32-.24.08-.47.14-.71.21-.11.03-.21.11-.21.2,0,.11.1.17.21.2.35.11.71.27.92.57.41.61.91.66,1.51.36.1-.05.22-.09.33-.12.32-.1.46-.33.44-.65-.06-.67.22-1.14.85-1.39.28-.11.43-.31.51-.6.24-.88.51-1.76.74-2.64.07-.26.2-.53.13-.8-.17-.75-.5-1.44-.82-2.17-.22.33-.35.71-.61.87-.58.36-.84.9-1.11,1.48-.15.33-.29.68-.55.94-.15.15-.27.16-.37-.07-.21-.48-.29-.97-.27-1.49.01-.2.06-.29.24-.13.17.15.27.05.38-.08.21-.24.38-.51.39-.84.01-.49.17-.95.35-1.4.13-.34.35-.66.36-1.03.05-1.21.13-1.09-.96-.87-.47.1-.76.34-.85.84-.05.29-.14.57-.16.88-.71-.55-.68-1.75.07-2.13,1.47-.76,2.97-1.47,4.45-2.22,1.33-.67,2.65-1.35,3.97-2.03.09.03.18.01.27-.03Z"/><path class="cls-3" d="m22.29,41.63c.25.15.49.3.74.44.13.07.3.15.29.29,0,.16-.21.17-.34.21-.15.04-.3.1-.45.13-.14.03-.28.09-.3.22-.02.16.15.19.27.23.24.09.49.18.66.39.01.07.05.13.09.19.1.09.18.18.26.28.22.34.53.43.92.32.26-.08.52-.17.78-.27.38-.16.6-.43.58-.84-.02-.6.25-.96.78-1.23.65-.33.9-1.33.54-1.97-.34-.45-.19-.89.04-1.33.05-.08.09-.16.12-.24.03-.1.08-.19.12-.28.01-.03.03-.06.03-.1.03-.14.12-.24.18-.36.03-.07.03-.14,0-.2.03-.11.15-.2.09-.33-.21-.49-.37-1.01-.65-1.49-.21.31-.34.66-.6.85-.38.28-.67.6-.9,1-.15.04-.18.17-.24.29-.12.24-.23.5-.38.73-.07.12-.13.29-.29.27-.15-.02-.16-.19-.2-.31-.15-.36-.12-.74-.11-1.15.2.08.39.09.53-.08.06-.07.09-.16.11-.25,0-.02,0-.04,0-.06.06-.2.19-.37.19-.59.02-.64.24-1.23.51-1.79.21-.44.24-.9.24-1.37,0-.23-.11-.34-.34-.3-.26.05-.51.1-.76.17-.39.1-.65.31-.71.73-.05.32-.15.63-.23.98-.74-.81-.59-1.78.32-2.27.21-.11.42-.22.63-.32,1.09-.51,2.17-1.03,3.22-1.59.15-.04.28-.11.4-.21.16-.08.33-.15.49-.23,1.22-.63,2.44-1.26,3.66-1.89.19,0,.36-.05.52-.13.86-.45,1.68-.95,2.51-1.44.36-.21.51-.55.45-.97-.05-.32-.12-.64-.18-.96-.14-.76-.39-1.01-1.13-1.14-1.08-.19-2.16-.39-3.24-.58-.17-.03-.34-.07-.5,0-.22.08-.29.29-.11.42.37.28.72.61,1.2.69.74.48,1.49.96,2.23,1.44.05.03.11.09.12.14,0,.1-.1.1-.17.12-.22.07-.46.12-.67.21-2.87,1.24-5.74,2.49-8.62,3.72-.36.15-.52.41-.58.76-.02.08.03.19-.1.25-.13-.09-.21-.22-.27-.36-.12-.25-.31-.33-.58-.27-1.36.31-2.72.63-4.05,1.06-.99.32-1.43,1.18-1.21,2.2.1.46.32.88.52,1.31.24.54.21.6-.37.71-.28.05-.56.12-.84.16-.34.05-.34.21-.18.45.22.34.48.62.84.8.5.24.93.58,1.32.97.32.32.67.59,1.12.68.29.06.46.23.53.5.14.53.32,1.05.43,1.58.09.47.34.78.73,1.01Z"/><path class="cls-3" d="m35.7,34.41c-.2-.8-.53-1.52-1.01-2.19-.57-.8-1.33-1.39-2.09-1.99-.25-.2-.52-.15-.77,0-.86.5-1.71,1-2.57,1.5-.19.11-.38.25-.45.47-.33,1.07-.55,2.14.3,3.1.7-.79,1.41-1.61,2.29-2.3.09.21.04.35.03.49-.14,1.07-.29,2.15-.42,3.22-.08.64,0,.71.61.53,1.61-.48,3.22-.98,4.82-1.47.32-.1.55-.28.72-.56.27-.46.54-.92.82-1.38.1-.16.13-.26-.1-.34-.36-.12-.7-.28-1.05-.44-.28-.12-.38,0-.41.26-.05.36-.11.72-.18,1.08-.03.19-.16.38-.33.39-.15,0-.17-.23-.21-.37Z"/><path class="cls-3" d="m41.09,33.59c.98-.41,2-.68,3.04-.88,1.09-.21,2.25-.16,3.28-.68,1.1-.47,2.2-.94,3.3-1.42.38-.16.42-.34.14-.64-.97-1.02-2.08-1.77-3.51-1.95-.37.07-.73.17-1.08.32-2.36,1.07-3.98,2.91-5.34,5.03-.05.07-.14.15-.07.24.08.09.17,0,.24-.04Z"/><path class="cls-3" d="m24.48,28.95c1.39-.56,2.77-1.15,4.15-1.73.29-.12.32-.33.11-.55-.62-.65-1.29-1.23-2.11-1.59-.61-.27-1.24-.53-1.93-.31-.91.29-1.74.75-2.48,1.36-.2.08-.35.23-.49.39-1.03.73-3.03,3.26-3,3.8,1.29-.58,2.64-.89,4.02-1.1.58-.09,1.19-.05,1.74-.27Z"/><path class="cls-3" d="m35.92,38.69c.08-.04.19.02.26-.06.35-.08.71-.17,1.06-.25.35,0,.69,0,.97-.25.09-.08.2-.05.3-.06.11-.04.23,0,.34-.06.09-.06.19-.12.31-.1.16.03.29-.04.4-.14h0c.09-.13.09-.26.01-.4-.15-.27-.18-.57-.23-.86-.1-.55-.1-.56-.65-.41-2.62.73-5.23,1.48-7.85,2.21-.28.08-.48.24-.71.4-.12.08-.16.35-.34.25-.14-.08-.03-.31-.02-.48,0-.04.02-.08.03-.11.13-.96.43-1.88.5-2.85,0-.13.23-.32,0-.39-.14-.04-.25.18-.36.31-.66.76-1.17,1.62-1.69,2.48-.13.29-.26.59-.39.88-.04.05-.06.1-.05.16,0,.19-.02.39,0,.58.04.62.59,1.02,1.17.87.83-.21,1.66-.44,2.49-.64,1.49-.36,2.97-.76,4.47-1.06Z"/><path class="cls-3" d="m17.35,33.86c-.11-.28-.16-.58-.19-.88-.03-.31-.19-.41-.48-.33-1.82.53-3.65,1.05-5.47,1.58-.42.1-.84.2-1.26.3l-.02.02h-.03c-.07.05-.2-.02-.26.07-.02,0-.04-.01-.06-.02-.26-.03-.51.07-.75.13-.19.04-.39.07-.56.18-.18.14-.36.28-.56.44-.02-.2-.02-.35.04-.5,0-.04.01-.07.02-.11,0-.15.03-.3.08-.44.02-.11.05-.23.07-.34.01-.26.09-.5.15-.75.02-.16.02-.31.08-.46,0-.12.03-.24.08-.35,0-.04.01-.08.01-.12,0-.23.23-.5-.1-.68-.17.02-.28.14-.38.25-.93,1.05-1.69,2.22-2.19,3.54-.19.51-.08,1,.23,1.45.2.28.47.43.81.34,1.63-.44,3.31-.7,4.89-1.33.16-.05.32-.1.48-.14,1.67-.41,3.34-.81,5.01-1.22.5-.12.51-.17.34-.63Z"/><path class="cls-3" d="m39.55,45.59c-.33-.24-.54-.56-.66-.94-.12-.38-.23-.77-.35-1.16-.25-.77-.51-1.53-.77-2.29-.05-.16-.13-.36-.32-.35-.15,0-.14.22-.19.35-.34,1.03-.62,2.07-.94,3.1-.17.56-.19,1.06.02,1.59.27.69.27,1.39.11,2.12-.17.72-.46,1.41-.61,2.14-.3,1.48-.38,3.01-1.02,4.41-.12.26.12.22.23.21.39-.04.57-.32.68-.67.85-2.77,2.27-5.26,3.8-7.69.1-.15.22-.3.2-.51.02-.14-.06-.22-.17-.31Z"/><path class="cls-3" d="m34.77,40c-1.66.35-3.32.7-4.98,1.04-.7.14-.73.2-.77.91-.03.54.18,1.02.25,1.54.17.17.31.04.44-.06.42-.32.85-.65,1.26-.99.43-.36.5-.38.92-.02.78.66,1.48,1.39,2.13,2.23.07-.25.13-.46.19-.67.31-1.24.63-2.47.94-3.71.02-.31-.14-.33-.39-.27Z"/><path class="cls-3" d="m49.08,46.18c-.21-.11-.39-.13-.51.14-.1.24-.12.43.16.55.13.06.26.11.39.17.33.16.45.41.34.77-.12.43-.39.74-.76.95-.62.35-1.29.56-1.99.67-.4.06-.81.03-1.2-.09-1-.31-1-.97-.42-1.45.03-.02.06-.05.08-.09.13-.21-.02-.34-.15-.47-.12-.12-.26-.22-.44-.09-.71.53-.72,1.89,0,2.43.45.34.97.42,1.35.41,1.53-.02,2.78-.35,3.81-1.29.61-.56.68-1.36.19-2.01-.22-.29-.53-.46-.84-.62Z"/><path class="cls-3" d="m26.86,42.78c-.21-.09-.34-.04-.44.17-.15.33-.07.47.41.67.53.23.65.53.4,1.05-.14.29-.35.52-.62.69-.62.37-1.31.59-2.02.7-.38.06-.78.06-1.16-.07-.36-.12-.76-.23-.86-.66-.1-.42.2-.67.48-.91.15-.12.05-.21-.03-.31-.06-.07-.13-.14-.19-.21-.15-.1-.31-.16-.45,0-.38.48-.6,1.03-.46,1.64.13.57.54.95,1.1,1.05,1.51.28,2.93.02,4.2-.88.85-.6,1.01-1.11.72-2.08-.28-.4-.65-.67-1.09-.86Z"/><path class="cls-3" d="m63.16,36.44c.22.15.35-.06.46-.22.35-.47.82-.78,1.32-1.07.12-.07.3-.09.35-.3-.57.06-1.09.2-1.57.47-.29.09-.54.23-.6.57-.14.2-.16.42.04.56Z"/><path class="cls-3" d="m49.25,50.35c-.99.46-1.93.81-3.01.86.82.58,2.68.07,3.01-.86Z"/><path class="cls-3" d="m26.98,47.03c-.9.43-1.83.76-2.87.81.14.2.33.18.46.28.03,0,.05,0,.08.01.13.06.26.1.39,0,.43-.04.82-.2,1.23-.33.37-.12.67-.33.82-.7-.02-.05-.04-.1-.11-.07Z"/><path class="cls-3" d="m72.99,40.96c-.16-.05-.26.01-.31.17-.08.16-.33.27-.19.5.14.23.38.19.6.15.39-.07.73-.22,1-.56-.37-.16-.7-.35-1.1-.26Z"/><path class="cls-3" d="m34.13,48.93c-.23-.27-.51-.49-.81-.66-.08-.05-.17-.11-.24-.02-.06.07.02.15.06.21.29.41.6.81.98,1.16-.03-.24.19-.49.02-.68Z"/><path class="cls-3" d="m16.88,41.68c-.13-.38-.26-.77-.38-1.15-.29-.89-.58-1.78-.88-2.67-.06-.17-.14-.39-.33-.39-.17,0-.16.25-.2.39-.34,1.04-.63,2.09-.95,3.14-.14.48-.19.91,0,1.37.33.81.34,1.62.1,2.45-.17.58-.36,1.14-.5,1.73-.36,1.53-.41,3.14-1.07,4.6-.1.21.01.25.19.24.43-.03.59-.34.71-.68.35-.99.65-2.01,1.14-2.96.84-1.62,1.67-3.25,2.68-4.78.13-.19.33-.4.1-.66-.2-.21-.41-.43-.61-.64Z"/><path class="cls-2" d="m41.82,3.31c.44.06.89.06,1.33,0v.67s.07-.07.09-.1c.26-.32.58-.54.98-.62.42-.09.83-.04,1.19.24.13.1.24.24.32.39.03.06.05.11.09.18.09-.11.17-.21.26-.3.27-.28.58-.47.97-.52.24-.03.48-.02.71.03.43.09.72.34.87.76.09.25.13.51.13.78,0,1,0,1.99,0,2.99v.03c0,.11,0,.11-.12.1-.2-.02-.39-.04-.59-.04-.17,0-.34.02-.5.04-.1,0-.11.01-.11-.1v-2.56c0-.24-.02-.48-.08-.71-.03-.12-.08-.24-.17-.34-.17-.19-.38-.22-.61-.19-.45.06-.58.35-.61.7-.02.18-.02.35-.02.53,0,.83,0,1.66,0,2.5v.09c0,.08,0,.08-.09.08-.19-.02-.38-.04-.57-.04-.18,0-.35.02-.53.04-.13.01-.13.02-.13-.12v-2.64c0-.24-.03-.47-.1-.7-.08-.25-.25-.41-.51-.44-.27-.03-.51.05-.67.29-.15.21-.19.46-.19.71,0,.91,0,1.82,0,2.74v.03c0,.14,0,.14-.14.13-.19-.02-.38-.04-.57-.04-.17,0-.34.03-.5.04-.12.01-.12.01-.12-.11V3.41s0-.07,0-.1"/><path class="cls-2" d="m29.79,3.32c.44.05.88.05,1.32,0v.67s.06-.06.08-.08c.26-.33.59-.55.99-.64.43-.1.84-.03,1.2.24.17.13.28.3.37.49,0,.02.02.04.04.07.08-.09.14-.17.22-.26.27-.31.6-.51,1.01-.57.28-.04.57-.01.85.07.42.13.66.43.77.85.05.2.08.4.08.6,0,1.01,0,2.02,0,3.03,0,.14.02.15-.14.13-.17-.02-.34-.03-.52-.04-.18,0-.35.02-.53.04-.13.01-.13.02-.13-.11v-2.66c0-.2-.02-.4-.07-.6-.03-.12-.09-.24-.17-.34-.16-.18-.37-.21-.59-.19-.05,0-.11.02-.16.03-.23.07-.38.22-.43.45-.03.13-.05.26-.05.4,0,.96,0,1.92,0,2.88,0,.15,0,.14-.14.13-.18-.02-.36-.04-.54-.04s-.35.02-.52.04c-.14.01-.14.02-.14-.13v-2.76c0-.2-.03-.4-.1-.59-.12-.33-.4-.46-.74-.4-.27.05-.44.22-.53.47-.07.18-.1.37-.1.57v2.71c0,.15,0,.14-.14.13-.19-.02-.39-.04-.58-.04-.17,0-.33.03-.5.04-.09,0-.09,0-.1-.08,0-.07,0-.14,0-.2V3.32Z"/><path class="cls-2" d="m39.67,7.36c-.08.09-.15.18-.23.27-.25.25-.58.39-.93.39-.23,0-.46-.01-.68-.1-.36-.14-.6-.4-.69-.78-.07-.3-.07-.61.04-.91.1-.26.29-.43.53-.55.29-.16.61-.24.93-.32.19-.05.38-.1.57-.15.08-.02.15-.05.22-.09.19-.09.29-.3.25-.5-.09-.48-.58-.83-1.08-.75-.3.04-.58.17-.81.37-.06.05-.1.11-.15.17-.01.02-.04.03-.06.03-.02,0-.03-.03-.04-.05-.03-.14-.06-.29-.1-.43-.02-.08.02-.13.08-.17.2-.16.43-.29.68-.37.35-.13.73-.19,1.1-.18.41.02.8.1,1.16.32.34.21.54.5.54.91,0,.43,0,.87,0,1.3v1.38c0,.06,0,.13.02.19.04.14.14.2.28.21h.03s.12,0,.13.02c.02.06.02.12.01.18,0,.02-.03.04-.05.05-.31.15-.63.27-.98.22-.29-.04-.5-.2-.66-.45-.04-.06-.07-.13-.11-.2m0-1.91c-.29.1-.57.17-.83.32-.18.1-.32.27-.37.47-.05.16-.05.33-.04.49,0,.13.03.25.08.37.08.18.21.3.43.3.29,0,.49-.13.61-.4.09-.2.12-.42.13-.64.01-.26,0-.51,0-.77,0-.04,0-.08,0-.13"/><path class="cls-2" d="m27.13,5.72c-.13.02-.25.02-.36.05-.34.08-.53.32-.6.65-.05.24-.04.48.02.71.09.36.4.62.77.64.09,0,.17,0,.26,0,.4-.03.71-.5.73-.8,0-.07,0-.14,0-.21,0-.15-.07-.27-.17-.37-.04-.04-.08-.09-.1-.14-.03-.07.02-.14.1-.13.03,0,.06.01.09.02.42.15.84.3,1.26.45.01,0,.02,0,.04.01.06.02.08.04.06.11-.21.76-.84,1.32-1.61,1.45-.62.11-1.24.08-1.84-.13-.23-.08-.45-.2-.62-.37-.18-.18-.3-.41-.35-.66-.06-.3-.02-.6.09-.88.09-.21.25-.39.45-.5.02-.01.04-.03.06-.04,0,0,0,0,0,0-.1-.08-.21-.14-.3-.22-.14-.12-.21-.29-.23-.46-.05-.35.06-.66.29-.92.26-.29.6-.44.97-.54.4-.11.81-.13,1.22-.1.42.03.81.16,1.15.42.32.25.48.59.44,1.01,0,.04,0,.08-.01.13-.07.33-.32.53-.66.55-.4.03-.74-.27-.77-.67,0-.11,0-.22.05-.33.06-.15.18-.27.33-.32.07-.02.07-.03.03-.08-.13-.17-.3-.26-.5-.29-.19-.04-.39-.03-.59.02-.32.08-.52.28-.6.6-.03.11-.04.22-.05.34,0,.22.12.38.28.51.17.14.38.22.6.25.07.01.08.03.08.09,0,.06,0,.12,0,.18"/><path class="cls-2" d="m51.1,3.31v4.5s0,.04,0,.06c0,.05-.02.07-.07.06-.14-.01-.28-.03-.43-.04-.1,0-.2,0-.3,0-.15,0-.29.03-.44.04-.09,0-.09,0-.1-.08V3.31c.44.06.89.06,1.33,0"/><path class="cls-2" d="m49.69,1.37c-.15.01-.3-.03-.43-.11-.13-.08-.18-.25-.14-.4.04-.15.16-.26.31-.27.17-.02.29.06.39.2.06.08.11.16.17.24.03.04.07.08.11.12.04.04.1.04.14.01.05-.03.08-.07.06-.13-.01-.05-.03-.1-.05-.14-.05-.14-.11-.27-.15-.41-.07-.24.08-.52.44-.46.1.02.17.1.22.18.06.1.09.21.04.32-.06.13-.11.25-.16.38-.02.05-.04.09-.05.14-.02.05,0,.1.04.12.04.03.1.02.14-.01.02-.02.05-.05.06-.08.07-.1.14-.2.21-.3.09-.12.21-.2.37-.2.25,0,.36.17.34.38-.01.2-.15.34-.36.38-.14.02-.28.03-.41.05-.11,0-.16.04-.17.1,0,.06.04.1.15.12.12.02.25.03.37.05.06,0,.12.02.17.04.24.07.29.28.22.5-.04.15-.26.27-.44.18-.11-.05-.21-.13-.28-.23-.05-.08-.11-.16-.17-.23-.07-.08-.13-.1-.19-.07-.06.03-.07.08-.03.19.05.13.11.26.17.39.04.1.05.21.03.31-.05.23-.32.34-.52.22-.1-.06-.14-.15-.15-.26,0-.1,0-.21.05-.31.05-.11.09-.22.13-.33.01-.05.02-.1,0-.14-.02-.08-.08-.09-.15-.05-.03.02-.06.05-.08.08-.07.1-.14.21-.21.31-.1.15-.24.22-.42.21-.16-.02-.28-.14-.29-.3-.02-.28.13-.41.37-.44.12-.02.24-.04.36-.05.03,0,.07-.01.09-.03.05-.02.06-.08.04-.13,0,0,0-.01,0-.01-.04-.05-.09-.09-.16-.09-.05,0-.11,0-.19,0"/></g></svg>