<?xml version="1.0" encoding="UTF-8"?><svg id="Layer_2" xmlns="http://www.w3.org/2000/svg" viewBox="0 0 53.55 56.8"><defs><style>.cls-1,.cls-2{fill:#fff;}.cls-1,.cls-2,.cls-3{stroke-width:0px;}.cls-2{fill-rule:evenodd;}.cls-3{fill:#ffcd00;}</style></defs><g id="Layer_1-2"><path class="cls-3" d="m26.71,56.79c-7.4,0-14.79,0-22.19,0C1.38,56.79,0,55.4,0,52.25c0-14.23,0-28.46,0-42.68,0-2.96,1.42-4.38,4.37-4.38,9.68,0,19.37,0,29.05,0,.47,0,.95,0,1.4.08,1.65.29,2.47,1.21,2.52,2.89.05,1.57.02,3.13.02,4.7,0,5.23,0,10.47,0,15.7,0,1.23,0,1.24,1.27,1.24,3.48,0,6.96,0,10.44,0,.28,0,.56,0,.85,0,2.7.03,3.59.91,3.6,3.64.02,4.89,0,9.78,0,14.67,0,1.5,0,3.01,0,4.51-.02,2.63-1.53,4.15-4.16,4.16-5.3.02-10.59,0-15.89,0-2.26,0-4.51,0-6.77,0Zm.06-1.19c7.46,0,14.92-.05,22.38.03,2.03.02,3.27-1.14,3.23-3.28-.09-6.05-.03-12.1-.03-18.15,0-3.05-.27-3.33-3.31-3.33-3.89,0-7.77-.03-11.66.02-.87,0-1.1-.24-1.1-1.11.04-6.9.03-13.79.02-20.69,0-2.25-.47-2.73-2.68-2.73-5.8,0-11.6,0-17.39,0-4.14,0-8.27,0-12.41.01-1.57,0-2.51.92-2.63,2.48-.06.75-.1,1.5-.1,2.25,0,13.35,0,26.7,0,40.05,0,.53.02,1.07.07,1.59.2,2.12,1.01,2.84,3.15,2.84,7.49,0,14.98,0,22.47,0Z"/><path class="cls-1" d="m46.92,28.03c-1.44,0-2.88,0-4.32,0-.45,0-.93,0-1.02-.59-.09-.51.27-.67.68-.85,1.46-.64,1.66-1.74.56-2.88-1-1.04-1.99-2.08-3.01-3.1-.45-.45-.65-.96-.64-1.6.02-1.85.02-3.7.01-5.55,0-.34,0-.69-.07-1.03-.24-1.21-.07-1.42,1.19-1.43.94,0,1.88-.03,2.82,0,.88.03,1.11.39.88,1.2-.31,1.08-.05,2.18-.11,3.26-.04.72.05,1.45-.04,2.16-.1.78.27.9.91.9,2.44-.01,4.89,0,7.33,0,.28,0,.57-.02.84.04.62.13.85.72.39,1.11-.5.42-.69.95-.89,1.5-.27.71-.78,1.21-1.41,1.58-.39.23-.49.5-.36.93.23.75.42,1.51.62,2.27.08.32.22.57.56.69.36.13.58.4.48.8-.11.43-.46.57-.87.57-1.5,0-3.01,0-4.51,0,0,0,0,0,0,0Z"/><path class="cls-1" d="m45.65,13.58c0,1.25,0,2.51,0,3.76,0,.29.1.71-.32.78-.43.08-.7-.23-.82-.62-.07-.23-.1-.49-.1-.74,0-2.29,0-4.58,0-6.86,0-.47-.03-1.05.64-1.05.67,0,.61.59.62,1.05,0,1.22,0,2.44,0,3.67Z"/><path class="cls-3" d="m14.91,36.08c11,.11,22,.17,33,.13.77,0,1.03.25.94.97-.01.09,0,.19,0,.28-.02,1.44.28,1.52-1.47,1.46-.79-.03-1.03.27-1.02,1.04.08,3.7.12,7.39.17,11.09.02,1.24-.02,1.27-1.25,1.27-2.17-.01-1.99.26-2-1.94-.01-3.45-.04-6.9,0-10.34,0-.87-.28-1.13-1.13-1.13-2.35,0-4.7-.09-7.05-.13-.87-.01-1.2.49-.95,1.33.15.51.49.27.76.21.99-.24,1.99-.24,2.99-.08,4.22.7,5.35,4.28,3.76,7.75-.73,1.6-2.13,2.41-3.74,2.9-.28.08-.6.17-.8-.07-.64-.77-1.26-1.56-1.83-2.38-.25-.37.12-.36.37-.4.5-.07,1.01-.08,1.48-.23,1-.32,1.82-.89,1.97-2.04.17-1.23-.28-2.14-1.18-2.52-.99-.42-2.98-.1-3.57.56-.26.29-.22.64-.22.98,0,2.13-.03,4.26,0,6.39.01.76-.24,1.07-1.02,1.07-2.81-.02-2.26.13-2.29-2.21-.01-1.26,0-1.23-1.26-1.03-3.77.6-6.71-1.91-6.47-5.28.1-1.37.02-2.76.01-4.14,0-.38,0-.81-.54-.8-.57,0-.51.46-.51.82,0,3.76,0,7.52.02,11.28,0,1.33-.01,1.36-1.37,1.36-2.2,0-2.05.15-2.04-2.02,0-1.25-.01-2.51.03-3.76.02-.58-.19-.79-.75-.79-1.5.02-3.02-.09-4.51.05-.98.09-1.92.51-2.88.81-.3.09-.3.37-.26.63.11.6.38,1.12.88,1.51,1.17.91,3.07,1.1,4.31.3.68-.44.93-.27,1.08.42.05.21.13.42.2.63.5,1.63.51,1.66-1.12,2.1-3.02.82-7.21-.19-8.16-4.54-.17-.75-.43-1.28-1.29-1.33-.36-.02-.54-.29-.54-.65,0-.72-.24-1.63.11-2.11.49-.68,1.26.13,1.91.24.98.17,1.93.31,2.86-.07,1.38-.55,1.88-1.91,1.07-3.14-.69-1.05-1.59-1.84-3-1.78-1.06.05-2.13-.02-3.2.02-.6.02-.83-.17-.86-.79-.09-1.85-.05-1.91,1.78-1.91,2.85,0,5.7,0,8.56,0Zm15.94,6.07c0-.88,0-1.75,0-2.63,0-.5-.18-.76-.71-.75-1,.01-2,0-3,0-.39,0-.69.11-.69.57,0,1.69-.05,3.38.04,5.06.06,1.11,1.25,1.87,2.48,1.77,1.28-.11,1.87-.76,1.87-2.05,0-.66,0-1.31,0-1.97Zm-14.48-3.38c-.53,0-1.06.01-1.59,0-.53-.01-.71.12-.36.63.45.65.83,1.37.74,2.17-.11,1.01.29,1.38,1.26,1.24.15-.02.31,0,.47,0q1.89,0,1.82-1.86-.08-2.18-2.34-2.18Z"/><path class="cls-3" d="m17.5,25.92c0,2.25-.03,4.51.02,6.76.01.72-.25.92-.92.95-2.47.1-2.47.12-2.48-2.37,0-1.16,0-1.18-1.14-.93-1.3.29-2.56.14-3.8-.25-2.23-.7-3.06-2.97-3.14-4.88-.05-1.41-.01-2.82-.01-4.23,0-.45-.07-.85-.64-.82-.63.04-.71-.32-.7-.83.04-2.11-.3-1.87,1.82-1.88,2.35-.01,4.7,0,7.05-.01.27,0,.62.11.78-.19.16-.3-.14-.51-.29-.74-1.47-2.35-3.49-3.9-6.29-4.32-.56-.09-.69-.4-.6-.93.34-2.07.59-2.23,2.56-1.53,3.26,1.15,5.37,3.48,6.65,6.59.36.87.84,1.15,1.75,1.14,4.26-.04,8.52-.02,12.79-.01.44,0,1.05-.2,1.21.42.18.66.24,1.38-.06,2.03-.17.37-.61.23-.95.24q-2.23.05-2.23,2.24c0,.72-.05,1.45.01,2.16.07.81-.18,1.13-1.03,1.08-1.16-.07-2.32-.03-3.48-.01-1.75.02-2.76.87-2.82,2.35-.06,1.55,1.07,2.81,2.66,2.98,2.27.25,3.78-.55,4.92-2.61.06-.11.13-.3.19-.3.83,0,1.42.58,2.1.93.43.22.24.56.16.9-.65,2.6-2.63,3.56-4.98,3.89-2.82.39-5.51.05-7.31-2.52-1.27-1.82-1.32-3.87-.36-5.81.89-1.81,2.54-2.61,4.56-2.58.28,0,.56,0,.85,0q1.45,0,1.45-1.43c0-1.27,0-1.28-1.23-1.28-1.97,0-3.95,0-5.92,0-1.22,0-1.22,0-1.22,1.27,0,1.5,0,3.01,0,4.51.02,0,.05,0,.08,0Zm-3.38-2.4s0,0,0,0c0-.88,0-1.75,0-2.63,0-.5-.21-.75-.73-.75-1.13,0-2.25,0-3.38,0-.45,0-.72.17-.72.65.01,1.66-.05,3.32.06,4.97.08,1.21,1.16,1.89,2.54,1.78,1.47-.11,2.22-.8,2.22-2.05,0-.66,0-1.31,0-1.97Z"/><path class="cls-2" d="m38.84,0c.36,0,.72.09,1.06.28.34.19.61.45.81.8.19.35.29.71.29,1.09s-.09.73-.29,1.07c-.19.35-.46.61-.8.8-.34.19-.7.28-1.08.28s-.74-.09-1.08-.28c-.34-.19-.61-.46-.8-.8-.19-.34-.29-.7-.29-1.07s.1-.74.29-1.09c.2-.35.47-.61.81-.8.35-.19.7-.28,1.07-.28h0Zm0,.36c-.3,0-.6.08-.89.23-.29.15-.51.38-.67.67-.16.29-.24.59-.24.9s.08.61.24.9c.16.29.38.51.67.67.29.16.59.24.9.24s.61-.08.9-.24c.29-.16.51-.38.67-.67.16-.28.24-.58.24-.9s-.08-.61-.24-.9c-.16-.29-.39-.51-.67-.67-.29-.15-.58-.23-.89-.23h0Zm-.95,3V1.03h.8c.27,0,.47.02.59.07.12.04.22.12.29.23.07.1.11.22.11.34,0,.17-.06.32-.18.44-.12.13-.28.2-.48.21.08.03.15.08.2.12.09.09.21.24.34.46l.28.46h-.46l-.21-.37c-.16-.29-.3-.47-.4-.54-.07-.05-.17-.08-.3-.08h-.22v.99h-.38Zm.38-1.31h.46c.22,0,.37-.03.45-.1.08-.06.12-.15.12-.25,0-.07-.02-.13-.06-.18-.04-.05-.09-.1-.16-.12-.07-.03-.19-.04-.38-.04h-.43v.7h0Z"/><path class="cls-1" d="m9.17,3.04l.53-2.48h1.1c.26,0,.46.07.6.21.13.14.2.34.2.59,0,.39-.12.77-.35,1.13-.23.36-.57.54-1,.54h-1.08Zm.61-.44h.51c.25,0,.44-.13.58-.39.14-.26.21-.51.21-.76,0-.14-.04-.25-.11-.33-.07-.08-.19-.12-.35-.12h-.5l-.34,1.6Z"/><path class="cls-1" d="m12.02,3.04h-.48l.39-1.83h.46l-.07.33c.16-.25.36-.38.6-.38.02,0,.05,0,.1,0l-.1.49s-.08,0-.12,0c-.13,0-.25.03-.36.09-.1.06-.17.17-.21.34l-.2.95Z"/><path class="cls-1" d="m12.81,3.04l.11-.5h.52l-.11.5h-.52Z"/><path class="cls-1" d="m14.65,2.11h.48c-.03.16-.05.28-.05.34,0,.15.08.22.24.22.11,0,.18-.03.24-.08.05-.05.09-.15.12-.28l.37-1.75h.51l-.37,1.76c-.05.26-.16.45-.31.58-.15.13-.37.2-.64.2-.22,0-.39-.04-.49-.13-.1-.09-.16-.22-.16-.4,0-.13.02-.28.07-.47Z"/><path class="cls-1" d="m16.58,2.42l.26-1.2h.48l-.24,1.13s0,.03,0,.06c0,.02,0,.04,0,.06,0,.15.08.22.25.22.11,0,.2-.03.29-.1.08-.07.14-.17.17-.31l.22-1.06h.48l-.39,1.83h-.46l.06-.27c-.17.21-.39.32-.63.32-.16,0-.28-.04-.37-.11-.08-.08-.13-.19-.13-.35,0-.02,0-.05,0-.08,0-.04,0-.08.02-.13Z"/><path class="cls-1" d="m18.48,3.04l.39-1.83h.46l-.06.28c.18-.22.39-.33.63-.33.16,0,.29.04.38.12.09.08.14.19.14.34,0,.05,0,.1-.02.16l-.27,1.27h-.48l.24-1.11c.01-.05.02-.1.02-.14,0-.15-.08-.22-.24-.22-.12,0-.22.04-.31.11-.09.07-.15.18-.17.31l-.22,1.05h-.48Z"/><path class="cls-1" d="m21.03,2.26s0,.07,0,.1c0,.23.11.34.33.34.16,0,.28-.07.36-.2h.49c-.21.39-.52.58-.95.58-.24,0-.41-.06-.54-.17-.12-.11-.18-.28-.18-.49,0-.34.1-.63.3-.89.2-.25.47-.38.81-.38.46,0,.7.22.7.66,0,.13-.02.27-.06.43h-1.25Zm.08-.31h.75v-.07c0-.21-.1-.31-.29-.31-.11,0-.2.03-.28.1-.08.07-.13.16-.17.28Z"/><path class="cls-1" d="m22,3.78l.08-.39h.08s.08-.01.11-.04c.03-.02.05-.07.06-.13l.43-2.01h.48l-.43,2.03c-.04.2-.11.34-.21.42-.1.08-.26.12-.48.12h-.12Zm.81-2.78l.1-.45h.48l-.1.45h-.48Z"/><path class="cls-1" d="m23.46,1.81c.08-.24.19-.41.35-.5.15-.09.35-.14.59-.14.43,0,.65.14.65.42,0,.03,0,.08-.02.15-.01.06-.02.11-.03.13l-.16.76c-.01.06-.02.1-.03.14s0,.07,0,.09c0,.07.02.11.06.12v.07h-.54s0-.06,0-.1c0-.03,0-.07,0-.11-.09.08-.19.15-.29.19-.1.05-.21.07-.35.07-.14,0-.25-.03-.34-.1-.09-.07-.13-.17-.13-.3,0-.17.05-.33.16-.46.11-.14.28-.22.51-.25l.43-.06c.08-.01.14-.03.17-.07.03-.04.05-.08.05-.13,0-.11-.09-.16-.26-.16-.11,0-.2.02-.25.07s-.09.11-.12.18h-.47Zm1,.35c-.06.04-.16.07-.32.1-.15.02-.25.06-.32.12-.07.06-.1.13-.1.21,0,.11.06.16.19.16.11,0,.21-.03.31-.1.1-.07.16-.16.18-.27l.05-.22Z"/><path class="cls-1" d="m25.55,1.01l.09-.44h.49l-.07.33c-.04.19-.11.33-.22.43-.1.1-.23.16-.38.19l.04-.17c.11-.04.19-.08.23-.14.04-.05.07-.12.09-.2h-.27Z"/><path class="cls-1" d="m26,2.46h.49s0,.05,0,.06c0,.14.12.21.36.21.07,0,.15-.02.23-.05.08-.03.13-.09.13-.15,0-.03-.02-.06-.06-.09-.04-.03-.1-.05-.21-.08l-.3-.07c-.16-.04-.28-.09-.35-.16-.07-.06-.1-.14-.1-.23,0-.19.08-.36.24-.51.16-.15.38-.22.65-.22.47,0,.71.16.71.49,0,.03,0,.07,0,.12h-.48c0-.1-.02-.16-.07-.2-.04-.03-.11-.05-.21-.05-.11,0-.2.02-.25.05-.05.03-.08.08-.08.15,0,.07.1.12.31.17.21.04.35.08.43.11.09.04.16.09.2.15.04.06.06.13.06.2,0,.23-.09.42-.28.55-.19.13-.42.19-.68.19-.23,0-.41-.04-.55-.13-.13-.09-.2-.21-.2-.38,0-.02,0-.06,0-.13Z"/></g></svg>