<?xml version="1.0" encoding="UTF-8"?><svg id="Layer_2" xmlns="http://www.w3.org/2000/svg" viewBox="0 0 59.07 65.67"><defs><style>.cls-1{fill:#fff;}.cls-1,.cls-2{stroke-width:0px;}.cls-2{fill:#ff501c;}</style></defs><g id="Layer_1-2"><path class="cls-2" d="m33.98,4.13c.55.07,1.11.07,1.66,0v.84c.05-.06.09-.09.11-.12.32-.4.73-.67,1.23-.78.53-.11,1.04-.05,1.48.3.17.13.3.29.4.48.04.07.07.14.11.22.11-.13.21-.26.32-.38.33-.35.72-.58,1.21-.65.3-.04.6-.03.89.04.53.11.9.43,1.09.95.11.31.16.64.16.97,0,1.24,0,2.49,0,3.73v.03c0,.14,0,.13-.15.12-.25-.02-.49-.05-.74-.05-.21,0-.42.03-.63.05-.13.01-.13.01-.13-.12v-3.2c0-.3-.03-.6-.1-.89-.03-.15-.11-.3-.21-.42-.21-.24-.48-.27-.76-.23-.56.08-.72.44-.76.87-.02.22-.03.44-.03.66,0,1.04,0,2.08,0,3.12v.11c0,.1,0,.11-.11.1-.24-.02-.47-.05-.71-.05-.22,0-.44.02-.66.05-.16.02-.16.02-.16-.15v-3.29c0-.29-.04-.59-.13-.87-.11-.31-.31-.52-.64-.55-.34-.04-.64.07-.84.36-.18.27-.23.57-.24.89,0,1.14,0,2.28,0,3.42v.03c0,.18,0,.17-.18.16-.24-.02-.47-.05-.71-.05-.21,0-.42.03-.63.05-.15.01-.15.02-.15-.13v-5.51s0-.08,0-.13"/><path class="cls-2" d="m18.97,4.14c.55.06,1.1.06,1.65,0v.83c.05-.05.08-.07.1-.1.32-.41.73-.68,1.24-.8.54-.12,1.05-.04,1.5.3.21.16.35.37.46.61.01.03.03.05.05.09.09-.11.18-.22.27-.32.34-.38.75-.64,1.26-.71.35-.05.72-.02,1.06.09.52.17.82.54.97,1.06.07.24.1.5.1.75,0,1.26,0,2.52,0,3.78,0,.17.03.19-.18.16-.21-.03-.43-.04-.64-.05-.22,0-.44.03-.66.05-.16.02-.16.02-.16-.14v-3.32c0-.25-.03-.5-.09-.75-.04-.15-.11-.3-.21-.42-.2-.23-.46-.26-.74-.23-.07,0-.14.02-.2.04-.29.08-.47.27-.54.56-.04.16-.06.33-.06.5,0,1.2,0,2.39,0,3.59,0,.18,0,.18-.18.16-.22-.02-.45-.05-.68-.05s-.43.03-.64.05c-.17.02-.17.02-.17-.16v-3.45c0-.25-.04-.5-.13-.74-.15-.41-.5-.57-.92-.5-.34.06-.55.27-.67.58-.08.23-.13.47-.13.71v3.39c0,.18,0,.18-.18.16-.24-.02-.48-.04-.72-.04-.21,0-.42.04-.63.05-.11.01-.12,0-.12-.1,0-.08,0-.17,0-.25v-5.41Z"/><path class="cls-2" d="m31.3,9.19c-.1.11-.19.23-.29.33-.31.31-.73.48-1.16.49-.29,0-.58-.01-.85-.12-.45-.18-.75-.5-.86-.97-.09-.38-.09-.76.05-1.13.12-.32.36-.53.66-.69.37-.19.76-.3,1.16-.4.24-.06.48-.12.71-.19.1-.03.19-.07.28-.11.23-.12.36-.37.31-.63-.11-.61-.73-1.03-1.35-.93-.38.06-.73.22-1.02.47-.07.06-.12.14-.19.21-.02.02-.05.03-.07.04-.02,0-.04-.04-.05-.06-.04-.18-.08-.36-.12-.54-.03-.1.03-.16.1-.21.26-.2.54-.36.85-.47.44-.16.91-.24,1.38-.22.51.02,1,.12,1.44.4.42.26.67.63.68,1.14,0,.54,0,1.09,0,1.63v1.72c0,.08,0,.16.03.23.05.17.17.25.35.26h.03c.06,0,.15,0,.16.02.02.07.03.15.02.23,0,.02-.03.05-.06.06-.39.19-.79.33-1.23.27-.36-.05-.63-.25-.82-.56-.05-.08-.09-.17-.14-.25m0-2.39c-.36.12-.72.22-1.03.4-.23.13-.39.34-.47.59-.06.2-.06.41-.05.61,0,.16.04.31.09.46.09.23.27.37.53.37.36,0,.62-.16.76-.5.11-.25.15-.53.16-.8.01-.32,0-.64,0-.96,0-.05,0-.1,0-.17"/><path class="cls-2" d="m15.64,7.14c-.16.02-.31.03-.45.06-.42.11-.66.4-.75.81-.07.3-.04.59.03.89.11.45.5.77.96.79.11,0,.22,0,.33,0,.5-.04.89-.63.91-1,0-.09,0-.18,0-.26,0-.18-.09-.33-.21-.46-.05-.05-.1-.11-.13-.18-.04-.09.03-.17.12-.17.04,0,.07.01.11.03.52.19,1.05.37,1.57.56.01,0,.03.01.04.02.08.02.09.06.07.14-.26.94-1.05,1.65-2.01,1.81-.78.14-1.55.1-2.3-.16-.29-.09-.56-.25-.78-.47-.23-.22-.38-.51-.43-.83-.07-.37-.03-.75.12-1.1.11-.26.31-.48.56-.62.03-.02.05-.03.08-.05,0,0,0,0,0,0-.13-.09-.26-.18-.38-.28-.18-.15-.26-.36-.29-.58-.06-.44.07-.82.36-1.15.33-.36.75-.55,1.21-.67.5-.13,1.01-.16,1.52-.13.52.03,1.02.19,1.43.52.4.31.6.73.55,1.26,0,.05,0,.1-.01.16-.09.41-.4.67-.83.69-.5.04-.93-.34-.96-.84,0-.14.01-.28.07-.41.07-.19.22-.34.42-.4.08-.03.08-.04.04-.11-.16-.21-.38-.32-.63-.36-.24-.04-.49-.04-.73.02-.4.1-.65.35-.75.75-.04.14-.05.28-.06.42,0,.27.15.48.36.64.22.18.47.27.75.31.08.01.11.04.1.12,0,.08,0,.15,0,.22"/><path class="cls-2" d="m45.57,4.13v5.61s0,.05,0,.08c0,.07-.03.08-.09.08-.18-.02-.35-.04-.53-.05-.13-.01-.25-.01-.38,0-.18.01-.37.04-.55.05-.11.01-.12,0-.12-.1v-5.67c.55.07,1.11.07,1.67,0"/><path class="cls-2" d="m43.81,1.71c-.19.01-.38-.03-.54-.13-.16-.1-.22-.32-.17-.5.04-.18.2-.32.39-.34.22-.02.36.08.48.24.07.1.14.2.21.3.04.05.09.11.14.15.05.05.12.05.17.02.06-.04.09-.09.08-.16-.02-.06-.04-.12-.06-.18-.06-.17-.14-.34-.19-.51-.09-.3.1-.65.55-.58.13.02.21.12.27.22.08.12.12.26.05.4-.07.16-.14.32-.21.48-.02.06-.05.12-.07.18-.02.06,0,.12.05.15.05.04.13.03.17-.02.03-.03.06-.06.08-.1.09-.13.17-.25.26-.38.11-.15.26-.25.46-.25.31,0,.45.21.43.48-.02.25-.18.42-.46.47-.17.03-.34.04-.52.06-.14.01-.2.04-.21.12,0,.08.05.13.19.15.16.02.31.04.47.06.07.01.14.03.22.05.31.09.36.35.28.62-.06.18-.33.33-.54.23-.14-.07-.26-.17-.34-.29-.07-.1-.14-.2-.22-.29-.09-.1-.17-.12-.23-.09-.07.04-.09.1-.04.24.06.17.13.33.21.49.05.12.07.26.03.39-.06.28-.4.42-.65.27-.13-.07-.18-.19-.19-.33-.01-.13.01-.26.06-.38.06-.14.12-.27.16-.41.02-.06.02-.12,0-.18-.03-.1-.1-.12-.18-.06-.04.03-.07.06-.1.1-.09.13-.18.26-.27.39-.13.19-.3.28-.52.26-.2-.02-.35-.18-.36-.38-.02-.36.16-.51.47-.56.15-.02.3-.04.45-.07.04,0,.08-.02.12-.04.06-.03.08-.1.05-.16,0,0,0-.01-.01-.02-.04-.07-.12-.11-.2-.11-.07,0-.14,0-.24,0"/><path class="cls-1" d="m2.47,41.55H0v-22.09h5.2v2.2h-2.74v7.97h2.38v2.2h-2.38v9.72Z"/><path class="cls-1" d="m13.38,41.55h-2.47l-.33-3.86h-2.23l-.33,3.86h-2.47l2.05-22.09h3.69l2.08,22.09Zm-4.1-14.8l-.74,8.8h1.87l-.71-8.8-.18-2.94h-.06l-.18,2.94Z"/><path class="cls-1" d="m18.46,41.55h-2.47v-22.09h2.47v22.09Z"/><path class="cls-1" d="m21.05,41.55v-22.09h3.33c1.05,0,1.85.27,2.41.8.55.54.83,1.31.83,2.32v6.15c0,1.33-.57,2.17-1.72,2.53v.03c.61.16,1.04.45,1.26.88.23.43.35,1.06.37,1.89l.03,4.67c0,1.23.09,2.17.27,2.82h-2.44c-.16-.67-.24-1.68-.24-3.03l-.06-4.91c0-.73-.34-1.1-1.01-1.1h-.56v9.04h-2.47Zm3.15-11.09c.65,0,.98-.42.98-1.25v-6.45c0-.79-.31-1.19-.92-1.19h-.74v8.89h.68Z"/><path class="cls-1" d="m40.88,41.55h-2.47l-.33-3.86h-2.23l-.33,3.86h-2.47l2.05-22.09h3.69l2.08,22.09Zm-4.1-14.8l-.74,8.8h1.87l-.71-8.8-.18-2.94h-.06l-.18,2.94Z"/><path class="cls-1" d="m45.28,41.55h-2.38v-22.09h2.65l1.66,10.41.51,3.75h.06l-.24-4.4v-9.75h2.38v22.09h-2.68l-1.64-10.43-.51-3.75h-.06l.24,4.4v9.78Z"/><path class="cls-1" d="m52.47,41.55v-22.09h3.27c2.22,0,3.33,1.36,3.33,4.07v13.94c0,1.35-.28,2.36-.85,3.05s-1.39,1.03-2.48,1.03h-3.27Zm3.09-2.17c.36,0,.62-.12.8-.37.18-.25.27-.65.27-1.2v-14.63c0-.55-.09-.96-.27-1.2-.18-.25-.45-.37-.8-.37h-.62v17.78h.62Z"/><path class="cls-1" d="m3.93,53.85v-9.02h2.27v20.57h-2.27v-9.44h-1.63v9.44H0v-20.57h2.3v9.02h1.63Z"/><path class="cls-1" d="m13.7,65.39h-2.3l-.3-3.6h-2.08l-.3,3.6h-2.3l1.91-20.57h3.43l1.94,20.57Zm-3.82-13.78l-.69,8.19h1.74l-.66-8.19-.17-2.74h-.06l-.17,2.74Z"/><path class="cls-1" d="m16.69,65.39h-2.21v-20.57h2.46l1.55,9.69.47,3.49h.06l-.22-4.1v-9.08h2.21v20.57h-2.49l-1.52-9.72-.47-3.49h-.06l.22,4.1v9.11Z"/><path class="cls-1" d="m22.28,65.39v-20.57h3.04c2.07,0,3.1,1.26,3.1,3.79v12.98c0,1.26-.26,2.2-.79,2.84s-1.3.96-2.31.96h-3.04Zm2.88-2.02c.33,0,.58-.12.75-.35.17-.23.25-.6.25-1.12v-13.62c0-.52-.08-.89-.25-1.12-.17-.23-.42-.35-.75-.35h-.58v16.55h.58Z"/><path class="cls-1" d="m30.14,64.87c-.54-.54-.8-1.3-.8-2.3v-4.73h2.27v4.73c0,.31.07.57.21.78.14.2.36.3.65.3.24,0,.42-.08.55-.25.13-.17.19-.39.19-.66v-5.07c0-.55-.12-.97-.36-1.25-.24-.28-.66-.6-1.27-.97-.76-.46-1.31-.94-1.65-1.43-.34-.49-.51-1.19-.51-2.12v-4.54c0-.89.27-1.58.82-2.08.54-.5,1.27-.75,2.17-.75.98,0,1.73.27,2.27.82.54.54.79,1.3.78,2.26v4.29h-2.19v-4.29c0-.7-.28-1.05-.83-1.05-.24,0-.42.07-.55.22-.13.15-.19.34-.19.58v4.48c0,.5.11.88.32,1.13.21.26.56.54,1.04.86.89.48,1.52.99,1.9,1.54.38.54.57,1.28.57,2.2v5.18c0,.9-.28,1.61-.83,2.13-.55.52-1.3.78-2.24.78-1,0-1.76-.27-2.3-.8Z"/><path class="cls-1" d="m37.22,64.76c-.53-.61-.79-1.49-.79-2.63v-14.03c0-1.14.26-2.02.79-2.63s1.3-.91,2.31-.91,1.79.3,2.31.91c.53.61.79,1.49.79,2.63v14.03c0,1.14-.26,2.02-.79,2.63-.53.61-1.3.91-2.31.91s-1.79-.3-2.31-.91Zm3.14-2.38v-14.56c0-.81-.28-1.22-.83-1.22s-.83.41-.83,1.22v14.56c0,.83.28,1.25.83,1.25s.83-.42.83-1.25Z"/><path class="cls-1" d="m46,65.39h-2.21v-20.57h2.88l1.22,10.63.14,2.44h.06l.11-2.44,1.22-10.63h2.88v20.57h-2.19v-8.72l.3-7.03h-.06l-.28,2.63-1.16,13.12h-1.74l-1.13-13.12-.28-2.63h-.06l.3,7.03v8.72Z"/><path class="cls-1" d="m59.07,65.39h-4.93v-20.57h4.87v2.02h-2.57v6.95h2.24v1.99h-2.24v7.56h2.63v2.05Z"/></g></svg>