<?xml version="1.0" encoding="UTF-8"?><svg id="Layer_2" xmlns="http://www.w3.org/2000/svg" viewBox="0 0 78.12 37.04"><defs><style>.cls-1{fill:#ed1c24;}.cls-1,.cls-2{stroke-width:0px;}.cls-2{fill:#2744a0;}</style></defs><g id="Layer_1-2"><path id="path34983" class="cls-1" d="m44.46,4.44l-6.41,4.37c13.87.4,23.29-4.02,23.29-4.02-10.05,4.89-20.66,5.33-25.11,5.27l-7.63,5.21s23.87-.59,39.06-15.25c0,0-9.39,6.96-23.19,4.44"/><g id="g34987"><g id="g34993"><path id="path34995" class="cls-2" d="m73.17,15.16h-.62s.28.42-.11,1l-5.29,7.2.64-6.85c.13-.88.82-1.35.82-1.35h-2.26s-5.7,0-5.7,0l-6.03,8.2.64-6.81s0-.01,0-.02c.12-.89.82-1.37.82-1.37h-.7s-7.25,0-7.25,0h0c-.38-.01-18.55-.86-21.27,3.99,1.12-2.25,1.87-3.89,1.92-3.96h-13.19c.14.04.87.43.62,1.12h0c-.69,2.35-2.36,7.78-4.23,11.8-2.45,5.27-7.96,7.2-11.75,8.55-.35.12-.29.38.07.38,9.31.06,16.96-.68,22.74-10.71,1.34-2.32,2.66-4.87,3.69-6.94-.07.15-.12.31-.16.48-1.19,5.41,8.91,5.75,8.76,7.04-.13,1.14-6.15.79-10.13-.52-.02,0-.03-.01-.05-.02-.76-.25-1.08-.7-1.08-.7l.03.31s0,0,0,0c0,0,0,.02,0,.05l.16,1.44c.16,1.52.37,3.66.37,3.66,0,0,21.04,2.66,21.43-4.18.29-5.18-9.84-5.8-9.73-6.93.1-1.06,5.04-1.2,8.03-.75,0,0,.01,0,.02,0,1.34.21,1.53.93,1.53.93l.22-.5s0,0,0,0c0-.02,1.81-4.16,1.97-4.51l-1.36,14.51h0c-.12.89-.82,1.37-.82,1.37h7.94s6.04-8.21,6.04-8.21l-.64,6.85c-.12.88-.82,1.36-.82,1.36h.69s7.26,0,7.26,0l11.7-15.91h-4.95"/></g></g></g></svg>