<?xml version="1.0" encoding="UTF-8"?><svg id="Layer_2" xmlns="http://www.w3.org/2000/svg" viewBox="0 0 154.29 25.17"><defs><style>.cls-1{fill:#ff054e;}.cls-1,.cls-2{stroke-width:0px;}.cls-2{fill:#160d4c;}</style></defs><g id="Layer_1-2"><path class="cls-2" d="m14.91,1.15v18.89h-3.79v-1.58c-.99,1.2-2.44,1.78-4.28,1.78-3.87,0-6.85-2.75-6.85-7.05s2.98-7.05,6.85-7.05c1.68,0,3.11.53,4.1,1.65V1.15h3.97Zm-3.89,12.04c0-2.37-1.53-3.79-3.49-3.79s-3.51,1.43-3.51,3.79,1.53,3.79,3.51,3.79,3.49-1.43,3.49-3.79Z"/><path class="cls-2" d="m30.87,14.3h-10.36c.38,1.71,1.83,2.75,3.92,2.75,1.45,0,2.49-.43,3.44-1.32l2.11,2.29c-1.27,1.45-3.18,2.21-5.65,2.21-4.73,0-7.81-2.98-7.81-7.05s3.13-7.05,7.3-7.05,7.13,2.7,7.13,7.1c0,.31-.05.74-.08,1.07Zm-10.41-2.32h6.74c-.28-1.73-1.58-2.85-3.36-2.85s-3.11,1.09-3.39,2.85Z"/><path class="cls-2" d="m31.23,18.76l1.32-2.85c1.22.79,3.08,1.32,4.76,1.32,1.83,0,2.52-.48,2.52-1.25,0-2.24-8.27.05-8.27-5.42,0-2.6,2.34-4.43,6.34-4.43,1.88,0,3.97.43,5.27,1.2l-1.32,2.83c-1.35-.76-2.7-1.02-3.95-1.02-1.78,0-2.55.56-2.55,1.27,0,2.34,8.27.08,8.27,5.47,0,2.55-2.37,4.35-6.46,4.35-2.32,0-4.66-.64-5.93-1.48Z"/><path class="cls-2" d="m44.54,2.21c0-1.25.99-2.21,2.47-2.21s2.47.92,2.47,2.14c0,1.32-.99,2.29-2.47,2.29s-2.47-.97-2.47-2.21Zm.48,4.12h3.97v13.69h-3.97V6.34Z"/><path class="cls-2" d="m65.77,6.34v11.4c0,5.09-2.75,7.43-7.69,7.43-2.6,0-5.12-.64-6.72-1.88l1.58-2.85c1.17.94,3.08,1.55,4.84,1.55,2.8,0,4.02-1.27,4.02-3.74v-.59c-1.04,1.15-2.55,1.71-4.33,1.71-3.79,0-6.85-2.62-6.85-6.62s3.05-6.62,6.85-6.62c1.91,0,3.49.64,4.53,1.96v-1.76h3.77Zm-3.92,6.41c0-2.01-1.5-3.36-3.59-3.36s-3.61,1.35-3.61,3.36,1.53,3.36,3.61,3.36,3.59-1.35,3.59-3.36Z"/><path class="cls-2" d="m82.41,12.19v7.84h-3.97v-7.23c0-2.21-1.02-3.23-2.77-3.23-1.91,0-3.28,1.17-3.28,3.69v6.77h-3.97V6.34h3.79v1.6c1.07-1.17,2.67-1.81,4.53-1.81,3.23,0,5.68,1.88,5.68,6.06Z"/><path class="cls-1" d="m88.09,2.21c0-1.25.99-2.21,2.47-2.21s2.47.92,2.47,2.14c0,1.32-.99,2.29-2.47,2.29s-2.47-.97-2.47-2.21Zm.48,4.12h3.97v13.69h-3.97V6.34Z"/><path class="cls-1" d="m109.19,12.19v7.84h-3.97v-7.23c0-2.21-1.02-3.23-2.77-3.23-1.91,0-3.28,1.17-3.28,3.69v6.77h-3.97V6.34h3.79v1.6c1.07-1.17,2.67-1.81,4.53-1.81,3.23,0,5.68,1.88,5.68,6.06Z"/><path class="cls-1" d="m125.83,1.15v18.89h-3.79v-1.58c-.99,1.2-2.44,1.78-4.28,1.78-3.87,0-6.85-2.75-6.85-7.05s2.98-7.05,6.85-7.05c1.68,0,3.11.53,4.1,1.65V1.15h3.97Zm-3.89,12.04c0-2.37-1.53-3.79-3.49-3.79s-3.51,1.43-3.51,3.79,1.53,3.79,3.51,3.79,3.49-1.43,3.49-3.79Z"/><path class="cls-1" d="m142.05,6.34l-6.18,14.53c-1.32,3.31-3.21,4.3-5.68,4.3-1.4,0-2.93-.46-3.82-1.25l1.45-2.83c.61.53,1.45.87,2.24.87,1.09,0,1.71-.48,2.24-1.71l.05-.13-5.93-13.79h4.1l3.84,9.29,3.87-9.29h3.82Z"/><path class="cls-1" d="m154.29,12.22v7.81h-3.72v-1.71c-.74,1.25-2.16,1.91-4.17,1.91-3.21,0-5.12-1.78-5.12-4.15s1.71-4.1,5.88-4.1h3.16c0-1.71-1.02-2.7-3.16-2.7-1.45,0-2.95.48-3.95,1.27l-1.43-2.77c1.5-1.07,3.72-1.65,5.9-1.65,4.17,0,6.59,1.93,6.59,6.08Zm-3.97,3.49v-1.4h-2.72c-1.86,0-2.44.69-2.44,1.6,0,.99.84,1.65,2.24,1.65,1.32,0,2.47-.61,2.93-1.86Z"/></g></svg>