<?xml version="1.0" encoding="UTF-8"?><svg id="Layer_2" xmlns="http://www.w3.org/2000/svg" viewBox="0 0 91.36 19.52"><defs><style>.cls-1{fill:#ed1c24;stroke-width:0px;}</style></defs><g id="Layer_1-2"><polygon class="cls-1" points="8.71 0 0 19.38 12.86 19.38 14.74 15.22 7.37 15.11 14 0 8.71 0"/><polygon class="cls-1" points="20.37 5.43 14.17 19.38 28.11 19.38 34.77 5.43 29.53 5.43 25.21 15.05 21.05 15.22 25.44 5.43 20.37 5.43"/><polygon class="cls-1" points="31.53 15.22 29.36 19.38 36.42 19.38 44.95 15.68 50.02 19.38 53.04 19.38 55.37 15.22 52.69 15.22 50.53 13.46 53.95 11.52 56.79 5.43 45.92 10.04 39.43 5.95 37.5 10.33 40.12 12.41 34.48 15.39 31.53 15.22"/><path class="cls-1" d="m60.92,5.43l-6.71,14.08h14.48l4.92-9.96h2.93l1.88-4.13h-17.5Zm4.92,9.79h-4.44l2.22-5.24h4.58l-2.36,5.24Z"/><polygon class="cls-1" points="77.93 9.81 82.94 9.81 78.41 19.52 89.45 19.52 91.36 15.22 85.21 15.22 89.14 5.43 84.08 5.43 85.56 2.19 81.23 2.19 77.93 9.81"/></g></svg>