<?xml version="1.0" encoding="UTF-8"?><svg id="Layer_2" xmlns="http://www.w3.org/2000/svg" viewBox="0 0 101.8 34.28"><defs><style>.cls-1{fill:#d60008;}.cls-1,.cls-2,.cls-3{stroke-width:0px;}.cls-2{fill:#ec1c24;fill-rule:evenodd;}.cls-3{fill:#ff723c;}</style></defs><g id="Layer_1-2"><path class="cls-1" d="m13.99,6.42c.95.62,1.71,1.44,2.29,2.48.58,1.03.87,2.29.87,3.79,0,1.31-.26,2.45-.78,3.43-.52.97-1.21,1.77-2.07,2.39-.87.62-1.87,1.08-2.98,1.38-1.11.3-2.27.45-3.49.45H.02v-.85c.23,0,.52-.03.87-.07.35-.04.58-.08.7-.13.26-.11.44-.26.55-.44.1-.19.15-.41.15-.67V7.18c0-.25-.05-.47-.14-.67-.09-.2-.28-.36-.56-.49-.28-.12-.57-.21-.88-.25-.31-.04-.55-.07-.72-.09v-.85h8.25c.88,0,1.82.11,2.83.34,1.01.23,1.97.64,2.91,1.26Zm-2.23,11.11c.36-.58.62-1.28.78-2.08.16-.81.25-1.73.25-2.78s-.11-1.96-.33-2.81c-.22-.84-.54-1.57-.96-2.16-.42-.6-.95-1.06-1.58-1.39-.63-.33-1.35-.49-2.15-.49-.26,0-.54,0-.87.02-.32.01-.57.02-.73.03v11.77c0,.26.03.49.1.69.07.2.19.38.35.53.17.15.37.27.62.36.24.08.56.13.96.13.82,0,1.53-.15,2.12-.46s1.07-.75,1.43-1.34Z"/><path class="cls-1" d="m27.05,12.73c0,.48-.15.89-.44,1.25-.29.36-.68.54-1.17.54-.46,0-.84-.12-1.16-.35s-.47-.57-.47-1.02c0-.22.02-.39.05-.51.03-.12.06-.24.08-.34-.29.01-.59.11-.91.3s-.6.43-.85.75v5.16c0,.22.03.4.1.55.07.14.18.26.35.34.14.07.36.13.67.17.31.05.53.07.67.08v.69h-6.29v-.69c.16-.01.31-.03.47-.05.16-.02.3-.05.41-.09.2-.07.34-.18.41-.32s.11-.33.11-.56v-5.47c0-.23-.05-.43-.16-.61-.11-.18-.23-.32-.39-.43-.11-.08-.26-.14-.43-.19-.17-.05-.36-.08-.57-.1v-.69l4.48-.24.14.14v1.36h.04c.43-.5.89-.89,1.38-1.18.49-.28.99-.43,1.52-.43.58,0,1.05.18,1.4.54s.53.83.53,1.4Z"/><path class="cls-1" d="m29.62,18.52c0,.58-.21,1.07-.64,1.5-.43.42-.93.63-1.51.63s-1.1-.21-1.52-.63c-.43-.42-.64-.92-.64-1.5s.21-1.09.64-1.51c.43-.43.93-.64,1.52-.64s1.09.22,1.51.64c.43.43.64.93.64,1.51Z"/><path class="cls-1" d="m47.64,6.55c.76.7,1.37,1.54,1.82,2.53.45.99.67,2.12.67,3.39,0,1.13-.19,2.2-.57,3.22-.38,1.02-.93,1.9-1.64,2.63-.75.76-1.63,1.36-2.64,1.79-1.01.43-2.22.64-3.62.64-1.13,0-2.2-.19-3.2-.56s-1.89-.91-2.66-1.62c-.76-.69-1.36-1.53-1.8-2.52-.44-.99-.67-2.09-.67-3.31s.22-2.42.65-3.45c.43-1.03,1.03-1.91,1.79-2.65.75-.72,1.64-1.28,2.67-1.67,1.03-.39,2.13-.58,3.29-.58s2.25.19,3.26.57c1.02.38,1.9.91,2.64,1.58Zm-2.81,11.1c.33-.66.56-1.42.71-2.25.15-.84.22-1.79.22-2.85,0-.9-.06-1.77-.19-2.62-.13-.85-.34-1.61-.65-2.27-.31-.66-.73-1.2-1.25-1.6-.52-.4-1.16-.6-1.93-.6-1.32,0-2.32.63-3,1.88-.68,1.25-1.03,3.02-1.03,5.3,0,.97.07,1.89.22,2.75.15.86.38,1.61.7,2.25.33.65.74,1.15,1.25,1.52.5.36,1.12.54,1.86.54s1.34-.18,1.86-.55c.52-.36.93-.86,1.23-1.5Z"/><path class="cls-1" d="m60.7,12.55c0,.49-.15.92-.45,1.28-.3.37-.7.55-1.19.55-.47,0-.86-.12-1.19-.35-.32-.24-.49-.58-.49-1.04,0-.22.02-.4.05-.52.03-.12.06-.24.09-.35-.3.01-.61.11-.93.31s-.62.44-.87.76v5.28c0,.22.03.41.11.56.07.15.19.26.36.35.14.07.37.13.69.18s.55.08.69.08v.7h-6.43v-.7c.16-.01.32-.03.49-.05.16-.02.3-.05.42-.09.2-.07.35-.18.42-.33.08-.15.12-.34.12-.58v-5.6c0-.23-.05-.44-.16-.62-.11-.18-.24-.33-.39-.44-.12-.08-.26-.14-.44-.19-.18-.05-.37-.09-.58-.11v-.7l4.59-.25.14.14v1.39h.04c.44-.51.91-.91,1.41-1.21.5-.29,1.01-.44,1.55-.44.6,0,1.08.18,1.44.55.36.37.54.84.54,1.43Z"/><path class="cls-1" d="m69.28,19.83c-.47.2-.97.39-1.5.55-.53.16-1.18.25-1.94.25-1.14,0-1.98-.28-2.53-.83-.55-.55-.83-1.34-.83-2.37v-6.7h-1.97v-1.19h2.01v-3.31h3.54v3.31h3.07v1.19h-3.05v5.98c0,.85.12,1.45.36,1.81.24.36.66.53,1.28.53.2,0,.47-.01.82-.04.35-.03.6-.06.73-.1v.92Z"/><path class="cls-1" d="m84.36,20.33h-6.57v-.8c.15-.01.32-.03.51-.05s.34-.06.44-.11c.15-.08.26-.2.32-.35.06-.15.09-.38.09-.68v-5.11c0-.75-.14-1.31-.42-1.68-.28-.37-.68-.56-1.2-.56-.29,0-.56.04-.81.13-.25.09-.5.22-.74.38-.21.15-.38.3-.51.45-.13.15-.24.29-.32.4v5.87c0,.27.03.48.1.64.07.16.19.29.37.39.11.07.25.12.43.17.18.05.35.09.52.11v.8h-6.67v-.8c.19-.01.38-.03.56-.05s.34-.06.48-.11c.23-.09.39-.21.48-.38.08-.16.13-.38.13-.65V6.16c0-.23-.05-.48-.16-.74s-.26-.46-.46-.59c-.15-.09-.36-.17-.63-.22-.28-.05-.52-.09-.74-.1v-.8l5.44-.28.16.17v7.52h.04c.28-.25.53-.47.75-.67.22-.2.49-.4.81-.61.27-.17.62-.32,1.05-.45.43-.12.9-.19,1.4-.19,1.18,0,2.06.34,2.66,1.02s.89,1.57.89,2.68v5.35c0,.27.04.48.12.64.08.16.23.29.45.38.13.06.28.11.44.15.16.04.36.08.59.11v.8Z"/><path class="cls-1" d="m96.63,10.78c.54.5.95,1.1,1.23,1.8s.43,1.46.43,2.27-.14,1.57-.42,2.29c-.28.72-.69,1.33-1.23,1.84-.58.55-1.26.97-2.06,1.26-.8.29-1.71.44-2.74.44-.89,0-1.71-.13-2.45-.38-.75-.25-1.41-.64-1.98-1.15-.55-.49-.99-1.09-1.31-1.81-.32-.72-.48-1.52-.48-2.41s.14-1.65.42-2.33c.28-.68.7-1.29,1.26-1.82.54-.51,1.2-.91,1.99-1.19.79-.28,1.67-.42,2.65-.42s1.92.14,2.69.42c.78.28,1.44.68,1.99,1.19Zm-2.8,7.57c.16-.41.28-.9.36-1.49.08-.58.11-1.26.11-2.03,0-.51-.04-1.09-.11-1.75-.07-.66-.18-1.17-.33-1.55-.17-.46-.42-.82-.73-1.08-.31-.26-.7-.39-1.17-.39-.52,0-.93.14-1.24.43-.31.28-.55.65-.72,1.1-.15.42-.26.9-.32,1.46-.06.56-.09,1.14-.09,1.74,0,.79.03,1.45.08,1.97.05.52.17,1.04.37,1.57.17.45.41.81.72,1.07.31.26.71.39,1.19.39.44,0,.81-.12,1.13-.37.31-.24.56-.6.74-1.08Z"/><path class="cls-1" d="m3.7,28.77h-1.49v-.18c.13,0,.24-.03.33-.05.09-.03.13-.06.13-.09,0-.02,0-.03,0-.06,0-.02,0-.04-.01-.06l-.3-.8h-1.26c-.05.12-.09.22-.12.31s-.06.17-.08.24c-.02.07-.04.13-.05.18,0,.05-.01.08-.01.11,0,.07.05.12.16.16.11.04.23.06.36.07v.18H0v-.18s.1-.01.16-.03c.07-.02.12-.04.16-.06.07-.05.12-.09.16-.14.04-.05.07-.12.11-.21.18-.45.38-.96.6-1.52.22-.56.41-1.06.58-1.5h.2l1.2,3.1c.03.07.05.12.09.16.03.04.08.08.13.12.04.02.09.04.15.06.06.02.11.03.16.03v.18Zm-1.44-1.47l-.54-1.39-.54,1.39h1.08Z"/><path class="cls-1" d="m3.57,29.59c0-.08.02-.15.07-.21.05-.05.1-.08.17-.08.05,0,.1.01.14.03.04.02.07.05.1.08.03.03.05.06.08.1.03.04.05.08.07.11.08-.05.18-.16.3-.36s.2-.36.25-.5c-.16-.4-.31-.76-.44-1.07-.13-.32-.27-.64-.41-.98-.03-.08-.09-.14-.16-.18-.08-.04-.15-.07-.23-.08v-.17h1.14v.18c-.05,0-.11.01-.18.03s-.11.04-.11.07c0,.01,0,.03.01.05,0,.02.02.05.03.07.06.17.16.41.29.72.13.31.23.57.31.75.08-.18.15-.37.24-.56s.17-.42.27-.68c.01-.03.03-.08.05-.13.02-.06.03-.1.03-.15,0-.04-.04-.08-.12-.12s-.15-.06-.22-.07v-.16h.93v.16c-.05,0-.12.04-.2.09-.08.05-.14.12-.18.21-.2.47-.38.89-.54,1.27-.16.38-.27.66-.36.85-.11.24-.2.42-.28.55-.08.13-.16.24-.24.31-.08.07-.15.12-.21.14-.06.02-.13.04-.2.04-.13,0-.23-.03-.31-.09-.07-.06-.11-.13-.11-.21Z"/><path class="cls-1" d="m8.98,28.73l-.81.06-.04-.04v-.32h-.01s-.09.09-.14.14c-.05.05-.11.09-.17.13-.08.05-.15.08-.22.1-.07.02-.17.04-.3.04-.22,0-.39-.07-.5-.22-.12-.14-.17-.35-.17-.63v-1.19c0-.06-.01-.11-.03-.15s-.06-.08-.1-.11c-.03-.02-.07-.03-.11-.04s-.09-.02-.15-.02v-.17l.83-.06.04.04v1.73c0,.18.04.32.12.41.08.09.18.14.29.14.09,0,.18-.01.25-.04.07-.03.13-.06.18-.1.05-.04.09-.07.12-.11.03-.04.06-.08.08-.11v-1.41c0-.06-.01-.1-.04-.15-.02-.04-.06-.08-.1-.11-.03-.02-.08-.03-.14-.04-.06,0-.13,0-.2-.01v-.17l.91-.06.04.04v1.98c0,.06.01.11.04.15.02.04.06.07.1.1.03.02.07.03.11.04.04,0,.09,0,.14.01v.17Z"/><path class="cls-1" d="m11.2,26.6c0,.09-.02.16-.06.23-.04.07-.11.1-.19.1-.09,0-.17-.02-.22-.07s-.07-.1-.07-.16c0-.04,0-.07,0-.1s.01-.06.02-.09c-.08,0-.17.03-.28.1-.11.06-.2.15-.27.27v1.45c0,.06.01.11.03.14.02.04.06.06.11.08.04.02.1.03.16.04s.12.01.17.02v.17h-1.32v-.17s.08,0,.12-.01c.04,0,.08-.01.11-.02.05-.02.08-.04.1-.08.02-.04.03-.09.03-.15v-1.54c0-.05-.01-.1-.04-.15-.02-.05-.06-.09-.1-.12-.03-.02-.07-.03-.11-.04-.04,0-.09-.02-.14-.02v-.17l.83-.06.04.04v.35h.01c.1-.14.22-.24.35-.31.13-.07.25-.11.35-.11s.19.03.26.1c.07.07.1.16.1.28Z"/><path class="cls-1" d="m13.88,26.43c-.08.01-.15.04-.22.08s-.13.11-.18.22c-.1.23-.2.46-.31.71s-.22.5-.33.77c-.03.08-.07.17-.11.28s-.07.21-.1.31h-.2c-.16-.4-.31-.76-.44-1.08s-.27-.66-.42-1c-.03-.08-.09-.14-.16-.18-.08-.04-.15-.07-.23-.08v-.17h1.15v.18c-.05,0-.11.01-.19.03s-.11.05-.11.08c0,0,0,.02.01.04,0,.02.02.04.03.07.07.17.17.41.29.72.13.31.23.56.31.75.06-.15.14-.33.23-.54.09-.22.19-.46.3-.72.02-.05.03-.09.05-.13.02-.04.02-.08.02-.12,0-.03-.01-.05-.04-.08-.03-.02-.06-.04-.1-.06-.04-.02-.08-.03-.11-.04s-.07-.01-.09-.02v-.16h.95v.15Z"/><path class="cls-1" d="m16.2,28.19c-.1.2-.24.36-.42.48-.18.12-.38.18-.6.18-.2,0-.38-.04-.53-.11-.15-.07-.28-.17-.37-.29-.1-.12-.17-.26-.22-.42s-.07-.33-.07-.51c0-.16.03-.32.08-.48s.13-.3.23-.42c.1-.12.22-.22.36-.29.14-.07.3-.11.48-.11s.34.03.47.09c.13.06.24.14.32.24.08.09.14.21.17.33s.06.27.06.42v.17h-1.65c0,.16.02.31.05.45.03.13.08.25.15.35.07.1.15.18.26.23.11.06.23.09.38.09s.28-.04.39-.11c.11-.07.21-.2.32-.38l.18.11Zm-.56-.95c0-.09,0-.19-.02-.3-.02-.11-.04-.2-.08-.27-.04-.08-.09-.14-.16-.19s-.15-.07-.26-.07c-.18,0-.32.07-.44.22-.12.15-.18.35-.19.61h1.15Z"/><path class="cls-1" d="m19.22,28.73l-.87.06-.04-.04v-.23h-.02c-.09.09-.2.17-.32.23-.13.06-.26.09-.4.09s-.28-.03-.41-.1c-.13-.06-.25-.15-.34-.27-.1-.12-.18-.26-.24-.42s-.09-.34-.09-.54c0-.18.03-.35.09-.51s.15-.3.26-.42c.1-.11.23-.2.38-.27s.3-.1.46-.1c.12,0,.23.01.34.04s.21.07.29.11v-.87c0-.07-.01-.14-.04-.19-.02-.06-.06-.1-.1-.13-.05-.03-.11-.06-.19-.07-.08-.01-.17-.03-.26-.03v-.16l1.02-.06.04.04v3.36c0,.06.01.11.03.15.02.04.06.08.1.1.03.02.08.03.14.04.06,0,.12,0,.17.01v.17Zm-.92-.44v-1.46s-.04-.09-.07-.14-.07-.1-.11-.14c-.05-.04-.11-.08-.17-.1s-.14-.04-.23-.04c-.1,0-.19.03-.28.08-.09.05-.16.13-.23.22-.06.09-.11.21-.15.36-.04.15-.05.31-.05.48,0,.14.01.27.04.39s.07.22.14.32c.06.09.13.17.23.23s.2.09.33.09c.13,0,.25-.03.33-.09s.16-.12.22-.19Z"/><path class="cls-1" d="m20.67,28.77h-1.2v-.17s.08,0,.12-.01c.04,0,.08-.01.11-.02.05-.02.08-.04.1-.08s.03-.09.03-.15v-1.54c0-.05-.01-.1-.04-.15-.02-.04-.06-.08-.1-.11-.03-.02-.08-.04-.14-.05-.06-.01-.12-.02-.17-.03v-.17l.88-.06.04.04v2.03c0,.06.01.11.03.15.02.04.06.07.11.09.04.02.07.03.11.04s.07.02.12.02v.17Zm-.32-3.51c0,.1-.03.18-.1.25-.06.07-.14.11-.23.11-.09,0-.16-.03-.22-.1-.06-.07-.09-.15-.09-.23,0-.09.03-.17.09-.24.06-.07.14-.1.22-.1.1,0,.17.03.24.1s.09.14.09.23Z"/><path class="cls-1" d="m22.14,28.84c-.36,0-.64-.12-.85-.36-.2-.24-.31-.56-.31-.96,0-.18.03-.34.08-.49.05-.15.13-.29.24-.42.1-.12.22-.22.37-.29.15-.07.31-.11.49-.11.24,0,.44.06.6.18s.23.28.23.48c0,.08-.02.16-.06.22-.04.06-.11.1-.2.1-.1,0-.18-.03-.23-.08-.05-.05-.08-.11-.08-.17,0-.08.01-.15.03-.23s.03-.14.04-.18c-.03-.05-.08-.09-.13-.1-.06-.02-.12-.03-.19-.03-.08,0-.16.02-.23.05-.07.03-.14.1-.21.19-.06.08-.11.2-.15.34-.04.14-.06.31-.06.51,0,.31.07.57.21.77.14.2.32.3.55.3.16,0,.3-.04.41-.12.11-.08.21-.2.31-.36l.16.11c-.11.2-.26.36-.44.47s-.37.17-.56.17Z"/><path class="cls-1" d="m27.55,25.61c.16.17.28.36.37.6s.13.49.13.78-.05.54-.14.78c-.09.23-.22.43-.38.59-.16.16-.34.29-.55.37-.21.09-.43.13-.66.13-.25,0-.48-.05-.69-.14-.21-.09-.39-.22-.55-.39-.15-.16-.27-.36-.36-.6-.09-.23-.13-.48-.13-.75,0-.29.05-.55.14-.78.09-.23.22-.43.38-.59.16-.17.34-.29.55-.38.21-.09.43-.13.66-.13s.46.04.67.13c.21.09.39.22.55.38Zm-.38,2.54c.09-.15.16-.33.21-.52.04-.19.06-.41.06-.65s-.02-.47-.07-.68-.12-.38-.21-.53c-.09-.14-.21-.25-.35-.34-.14-.08-.3-.12-.48-.12-.2,0-.37.05-.52.14-.14.09-.26.22-.35.37-.08.15-.15.32-.19.52-.04.2-.06.41-.06.63,0,.24.02.46.07.66.04.2.11.37.21.52.09.15.21.26.34.35.14.08.3.13.5.13.18,0,.34-.04.49-.13.15-.08.26-.2.35-.35Z"/><path class="cls-1" d="m29.65,28.77h-1.2v-.17s.08,0,.12-.01c.04,0,.08-.01.11-.02.05-.02.08-.04.1-.08s.03-.09.03-.15v-1.54c0-.05-.01-.1-.04-.15-.02-.04-.06-.08-.1-.11-.03-.02-.08-.04-.14-.05-.06-.01-.12-.02-.17-.03v-.17l.88-.06.04.04v2.03c0,.06.01.11.03.15.02.04.06.07.11.09.04.02.07.03.11.04s.07.02.12.02v.17Zm-.32-3.51c0,.1-.03.18-.1.25-.06.07-.14.11-.23.11-.09,0-.16-.03-.22-.1-.06-.07-.09-.15-.09-.23,0-.09.03-.17.09-.24.06-.07.14-.1.22-.1.1,0,.17.03.24.1s.09.14.09.23Z"/><path class="cls-1" d="m31.13,28.77h-1.22v-.17s.08,0,.12-.01c.04,0,.08-.01.11-.02.05-.01.08-.04.11-.08.02-.04.04-.09.04-.15v-2.89c0-.06-.01-.12-.04-.17-.03-.05-.06-.1-.1-.13-.03-.02-.09-.04-.17-.06-.08-.02-.15-.03-.19-.03v-.16l.94-.06.04.04v3.42c0,.06.01.11.03.15s.06.07.11.09c.04.02.07.03.11.04.04,0,.08.01.12.02v.17Z"/><path class="cls-1" d="m32.34,28.69c0,.12-.03.24-.08.34-.05.11-.12.2-.19.28-.07.08-.15.15-.23.21-.08.06-.16.11-.22.15l-.12-.17c.08-.05.15-.1.22-.15.06-.05.12-.1.16-.15.05-.06.09-.12.13-.19.04-.07.06-.15.07-.23h-.13c-.11,0-.2-.03-.26-.09-.06-.06-.09-.14-.09-.24,0-.07.03-.14.09-.21s.14-.1.24-.1c.15,0,.25.05.33.15.07.1.11.23.11.4Z"/><path class="cls-1" d="m35.73,28.86c-.21,0-.42-.04-.62-.13-.2-.08-.37-.21-.52-.36-.15-.16-.27-.35-.36-.58-.09-.23-.13-.49-.13-.77s.04-.55.13-.78c.09-.23.21-.43.36-.6.15-.17.33-.3.54-.39.21-.09.43-.14.67-.14.18,0,.34.02.48.07.14.04.28.11.41.18l.1-.17h.2l.02,1.28h-.21c-.03-.12-.07-.26-.12-.41-.05-.15-.12-.27-.19-.37-.08-.11-.18-.2-.29-.27-.11-.06-.24-.1-.38-.1-.16,0-.32.04-.46.11-.14.07-.26.18-.37.32-.1.14-.17.31-.23.52-.06.21-.08.45-.08.71,0,.23.03.44.09.63.06.19.14.36.25.5.11.14.24.26.38.34.15.08.31.12.49.12.14,0,.26-.02.38-.06.11-.04.21-.1.3-.17.08-.07.16-.16.22-.25.06-.09.12-.2.16-.31l.19.09c-.14.36-.34.61-.58.76s-.52.23-.85.23Z"/><path class="cls-1" d="m39.77,28.73c-.08.03-.15.05-.21.07-.06.02-.13.03-.2.03-.13,0-.24-.03-.31-.09-.08-.06-.13-.15-.15-.27h-.01c-.11.12-.23.21-.35.28-.13.06-.28.1-.45.1-.19,0-.34-.06-.46-.17-.12-.11-.18-.26-.18-.45,0-.1.01-.18.04-.26s.07-.14.12-.21c.04-.05.1-.1.17-.14s.13-.07.19-.09c.08-.03.23-.08.46-.16s.39-.14.47-.18v-.25s0-.06-.01-.13c0-.06-.03-.12-.06-.18-.03-.06-.08-.12-.14-.16-.06-.05-.15-.07-.26-.07-.08,0-.15.01-.22.04-.07.03-.11.05-.14.08,0,.03,0,.08.02.15.02.07.02.13.02.18,0,.06-.03.11-.08.16-.05.05-.13.07-.22.07-.08,0-.15-.03-.19-.09s-.06-.13-.06-.2.03-.15.08-.22c.05-.07.13-.13.21-.19.08-.05.17-.09.28-.12.11-.03.21-.05.32-.05.14,0,.27,0,.37.03s.2.06.29.13c.09.06.15.15.2.25.04.11.07.24.07.41,0,.24,0,.45,0,.64,0,.19,0,.39,0,.61,0,.07.01.12.03.16s.06.07.1.1c.03.02.07.02.12.03.05,0,.11,0,.17,0v.16Zm-.88-1.34c-.14.04-.27.08-.38.12s-.21.09-.3.15c-.08.06-.15.13-.2.2s-.07.17-.07.28c0,.14.04.24.11.31.07.07.17.1.28.1.12,0,.23-.03.32-.09.09-.06.17-.13.23-.21l.02-.87Z"/><path class="cls-1" d="m42.3,26.58c.1.12.18.25.23.41s.08.33.08.54-.03.38-.1.54c-.07.16-.15.3-.26.42-.11.12-.24.21-.38.27-.14.06-.29.09-.44.09s-.27-.02-.37-.05c-.1-.03-.17-.07-.24-.12h-.02v.75c0,.06.01.11.04.15.02.04.06.07.11.09.04.01.1.03.17.04.07.01.14.02.19.02v.17h-1.39v-.17c.05,0,.1,0,.15-.01.05,0,.09-.01.13-.03.05-.02.09-.05.11-.09s.03-.09.03-.15v-2.65c0-.05-.01-.1-.04-.15-.03-.05-.06-.09-.1-.11-.03-.02-.07-.04-.13-.05-.05-.01-.11-.02-.16-.02v-.17l.85-.06.04.03v.28h.02c.09-.1.2-.18.33-.25.13-.07.26-.1.39-.1.15,0,.3.03.43.1.13.07.24.15.33.27Zm-.41,1.79c.07-.1.12-.23.15-.36.03-.14.05-.29.05-.46,0-.12-.01-.25-.04-.38-.03-.13-.07-.24-.13-.34-.06-.1-.13-.18-.22-.24-.09-.06-.2-.09-.33-.09s-.23.03-.32.08c-.09.05-.16.12-.23.2v1.47s.04.09.07.14c.03.05.07.09.12.13.05.04.11.08.17.1.06.03.13.04.22.04.09,0,.19-.02.27-.07s.16-.12.22-.21Z"/><path class="cls-1" d="m44.63,27.55c.07.06.12.13.16.21s.06.18.06.29c0,.23-.09.42-.26.57s-.4.22-.67.22c-.15,0-.28-.03-.4-.08-.12-.05-.21-.1-.26-.14l-.05.16h-.19l-.03-.87h.17c.01.07.04.14.09.23.04.09.1.17.16.24.07.07.14.14.24.19.09.05.2.08.31.08.16,0,.29-.04.37-.11s.13-.18.13-.32c0-.07-.01-.13-.04-.18-.03-.05-.07-.1-.12-.14-.06-.04-.12-.07-.2-.1-.08-.03-.17-.06-.27-.09-.08-.02-.17-.06-.26-.1s-.18-.09-.25-.15c-.07-.06-.13-.13-.18-.22s-.07-.19-.07-.3c0-.2.08-.38.23-.52.15-.14.36-.21.61-.21.1,0,.2.01.3.04.1.03.19.06.25.09l.06-.13h.18l.04.8h-.17c-.04-.18-.11-.33-.23-.44-.12-.11-.26-.17-.43-.17-.14,0-.25.03-.33.1-.08.07-.12.15-.12.25,0,.08.01.14.04.19.03.05.07.09.12.13.05.03.11.07.19.09s.17.06.28.1c.11.04.22.08.32.12.1.05.18.1.24.16Z"/><path class="cls-1" d="m47.9,28.73l-.81.06-.04-.04v-.32h-.01s-.09.09-.14.14c-.05.05-.11.09-.17.13-.08.05-.15.08-.22.1-.07.02-.17.04-.3.04-.22,0-.39-.07-.5-.22-.12-.14-.17-.35-.17-.63v-1.19c0-.06-.01-.11-.03-.15s-.06-.08-.1-.11c-.03-.02-.07-.03-.11-.04s-.09-.02-.15-.02v-.17l.83-.06.04.04v1.73c0,.18.04.32.12.41.08.09.18.14.29.14.09,0,.18-.01.25-.04.07-.03.13-.06.18-.1.05-.04.09-.07.12-.11.03-.04.06-.08.08-.11v-1.41c0-.06-.01-.1-.04-.15-.02-.04-.06-.08-.1-.11-.03-.02-.08-.03-.14-.04-.06,0-.13,0-.2-.01v-.17l.91-.06.04.04v1.98c0,.06.01.11.04.15.02.04.06.07.1.1.03.02.07.03.11.04.04,0,.09,0,.14.01v.17Z"/><path class="cls-1" d="m49.37,28.77h-1.22v-.17s.08,0,.12-.01c.04,0,.08-.01.11-.02.05-.01.08-.04.11-.08.02-.04.04-.09.04-.15v-2.89c0-.06-.01-.12-.04-.17-.03-.05-.06-.1-.1-.13-.03-.02-.09-.04-.17-.06-.08-.02-.15-.03-.19-.03v-.16l.94-.06.04.04v3.42c0,.06.01.11.03.15s.06.07.11.09c.04.02.07.03.11.04.04,0,.08.01.12.02v.17Z"/><path class="cls-1" d="m51.9,28.19c-.1.2-.24.36-.42.48-.18.12-.38.18-.6.18-.2,0-.38-.04-.53-.11-.15-.07-.28-.17-.37-.29-.1-.12-.17-.26-.22-.42s-.07-.33-.07-.51c0-.16.03-.32.08-.48s.13-.3.23-.42c.1-.12.22-.22.36-.29.14-.07.3-.11.48-.11s.34.03.47.09c.13.06.24.14.32.24.08.09.14.21.17.33s.06.27.06.42v.17h-1.65c0,.16.02.31.05.45.03.13.08.25.15.35.07.1.15.18.26.23.11.06.23.09.38.09s.28-.04.39-.11c.11-.07.21-.2.32-.38l.18.11Zm-.56-.95c0-.09,0-.19-.02-.3-.02-.11-.04-.2-.08-.27-.04-.08-.09-.14-.16-.19s-.15-.07-.26-.07c-.18,0-.32.07-.44.22-.12.15-.18.35-.19.61h1.15Z"/><path class="cls-1" d="m53.83,27.55c.07.06.12.13.16.21s.06.18.06.29c0,.23-.09.42-.26.57s-.4.22-.67.22c-.15,0-.28-.03-.4-.08-.12-.05-.21-.1-.26-.14l-.05.16h-.19l-.03-.87h.17c.01.07.04.14.09.23.04.09.1.17.16.24.07.07.14.14.24.19.09.05.2.08.31.08.16,0,.29-.04.37-.11s.13-.18.13-.32c0-.07-.01-.13-.04-.18-.03-.05-.07-.1-.12-.14-.06-.04-.12-.07-.2-.1-.08-.03-.17-.06-.27-.09-.08-.02-.17-.06-.26-.1s-.18-.09-.25-.15c-.07-.06-.13-.13-.18-.22s-.07-.19-.07-.3c0-.2.08-.38.23-.52.15-.14.36-.21.61-.21.1,0,.2.01.3.04.1.03.19.06.25.09l.06-.13h.18l.04.8h-.17c-.04-.18-.11-.33-.23-.44-.12-.11-.26-.17-.43-.17-.14,0-.25.03-.33.1-.08.07-.12.15-.12.25,0,.08.01.14.04.19.03.05.07.09.12.13.05.03.11.07.19.09s.17.06.28.1c.11.04.22.08.32.12.1.05.18.1.24.16Z"/><path class="cls-1" d="m55.33,28.69c0,.12-.03.24-.08.34-.05.11-.12.2-.19.28-.07.08-.15.15-.23.21-.08.06-.16.11-.22.15l-.12-.17c.08-.05.15-.1.22-.15.06-.05.12-.1.16-.15.05-.06.09-.12.13-.19.04-.07.06-.15.07-.23h-.13c-.11,0-.2-.03-.26-.09-.06-.06-.09-.14-.09-.24,0-.07.03-.14.09-.21s.14-.1.24-.1c.15,0,.25.05.33.15.07.1.11.23.11.4Z"/><path class="cls-1" d="m59.37,27.13c.08.08.13.18.17.28.04.1.05.22.05.35,0,.32-.12.58-.35.78-.23.21-.53.31-.87.31-.16,0-.32-.02-.48-.07-.16-.05-.3-.11-.41-.18l-.11.18h-.2l-.04-1.23h.21c.04.15.09.29.15.41.06.12.13.24.22.34.09.1.19.18.31.24.12.06.25.09.41.09.12,0,.22-.01.31-.05s.16-.07.21-.13c.05-.06.09-.12.12-.2.03-.07.04-.16.04-.26,0-.14-.04-.28-.12-.4-.08-.12-.2-.22-.36-.28-.11-.04-.23-.09-.38-.14-.14-.05-.26-.1-.37-.15-.2-.09-.36-.21-.47-.36-.11-.15-.17-.34-.17-.58,0-.14.03-.26.08-.38.06-.12.13-.22.24-.32.1-.09.21-.16.35-.21.13-.05.27-.07.42-.07.17,0,.31.03.44.08.13.05.25.11.36.18l.1-.17h.2l.02,1.19h-.2c-.04-.14-.08-.27-.13-.39-.05-.12-.11-.24-.18-.34-.07-.1-.16-.18-.27-.23s-.23-.09-.38-.09c-.16,0-.3.05-.41.15-.11.1-.17.23-.17.38s.04.28.11.39c.07.1.18.19.32.25.12.06.24.11.36.15.12.04.23.09.35.14.1.04.2.09.29.15s.18.12.24.19Z"/><path class="cls-1" d="m62.26,26.58c.1.12.18.25.23.41s.08.33.08.54-.03.38-.1.54c-.07.16-.15.3-.26.42-.11.12-.24.21-.38.27-.14.06-.29.09-.44.09s-.27-.02-.37-.05c-.1-.03-.17-.07-.24-.12h-.02v.75c0,.06.01.11.04.15.02.04.06.07.11.09.04.01.1.03.17.04.07.01.14.02.19.02v.17h-1.39v-.17c.05,0,.1,0,.15-.01.05,0,.09-.01.13-.03.05-.02.09-.05.11-.09s.03-.09.03-.15v-2.65c0-.05-.01-.1-.04-.15-.03-.05-.06-.09-.1-.11-.03-.02-.07-.04-.13-.05-.05-.01-.11-.02-.16-.02v-.17l.85-.06.04.03v.28h.02c.09-.1.2-.18.33-.25.13-.07.26-.1.39-.1.15,0,.3.03.43.1.13.07.24.15.33.27Zm-.41,1.79c.07-.1.12-.23.15-.36.03-.14.05-.29.05-.46,0-.12-.01-.25-.04-.38-.03-.13-.07-.24-.13-.34-.06-.1-.13-.18-.22-.24-.09-.06-.2-.09-.33-.09s-.23.03-.32.08c-.09.05-.16.12-.23.2v1.47s.04.09.07.14c.03.05.07.09.12.13.05.04.11.08.17.1.06.03.13.04.22.04.09,0,.19-.02.27-.07s.16-.12.22-.21Z"/><path class="cls-1" d="m64.85,26.6c0,.09-.02.16-.06.23-.04.07-.11.1-.19.1-.09,0-.17-.02-.22-.07s-.07-.1-.07-.16c0-.04,0-.07,0-.1s.01-.06.02-.09c-.08,0-.17.03-.28.1-.11.06-.2.15-.27.27v1.45c0,.06.01.11.03.14.02.04.06.06.11.08.04.02.1.03.16.04s.12.01.17.02v.17h-1.32v-.17s.08,0,.12-.01c.04,0,.08-.01.11-.02.05-.02.08-.04.1-.08.02-.04.03-.09.03-.15v-1.54c0-.05-.01-.1-.04-.15-.02-.05-.06-.09-.1-.12-.03-.02-.07-.03-.11-.04-.04,0-.09-.02-.14-.02v-.17l.83-.06.04.04v.35h.01c.1-.14.22-.24.35-.31.13-.07.25-.11.35-.11s.19.03.26.1c.07.07.1.16.1.28Z"/><path class="cls-1" d="m67.42,28.73c-.08.03-.15.05-.21.07-.06.02-.13.03-.2.03-.13,0-.24-.03-.31-.09-.08-.06-.13-.15-.15-.27h-.01c-.11.12-.23.21-.35.28-.13.06-.28.1-.45.1-.19,0-.34-.06-.46-.17-.12-.11-.18-.26-.18-.45,0-.1.01-.18.04-.26s.07-.14.12-.21c.04-.05.1-.1.17-.14s.13-.07.19-.09c.08-.03.23-.08.46-.16s.39-.14.47-.18v-.25s0-.06-.01-.13c0-.06-.03-.12-.06-.18-.03-.06-.08-.12-.14-.16-.06-.05-.15-.07-.26-.07-.08,0-.15.01-.22.04-.07.03-.11.05-.14.08,0,.03,0,.08.02.15.02.07.02.13.02.18,0,.06-.03.11-.08.16-.05.05-.13.07-.22.07-.08,0-.15-.03-.19-.09s-.06-.13-.06-.2.03-.15.08-.22c.05-.07.13-.13.21-.19.08-.05.17-.09.28-.12.11-.03.21-.05.32-.05.14,0,.27,0,.37.03s.2.06.29.13c.09.06.15.15.2.25.04.11.07.24.07.41,0,.24,0,.45,0,.64,0,.19,0,.39,0,.61,0,.07.01.12.03.16s.06.07.1.1c.03.02.07.02.12.03.05,0,.11,0,.17,0v.16Zm-.88-1.34c-.14.04-.27.08-.38.12s-.21.09-.3.15c-.08.06-.15.13-.2.2s-.07.17-.07.28c0,.14.04.24.11.31.07.07.17.1.28.1.12,0,.23-.03.32-.09.09-.06.17-.13.23-.21l.02-.87Z"/><path class="cls-1" d="m67.48,29.59c0-.08.02-.15.07-.21.05-.05.1-.08.17-.08.05,0,.1.01.14.03.04.02.07.05.1.08.03.03.05.06.08.1.03.04.05.08.07.11.08-.05.18-.16.3-.36s.2-.36.25-.5c-.16-.4-.31-.76-.44-1.07-.13-.32-.27-.64-.41-.98-.03-.08-.09-.14-.16-.18-.08-.04-.15-.07-.23-.08v-.17h1.14v.18c-.05,0-.11.01-.18.03s-.11.04-.11.07c0,.01,0,.03.01.05,0,.02.02.05.03.07.06.17.16.41.29.72.13.31.23.57.31.75.08-.18.15-.37.24-.56s.17-.42.27-.68c.01-.03.03-.08.05-.13.02-.06.03-.1.03-.15,0-.04-.04-.08-.12-.12s-.15-.06-.22-.07v-.16h.93v.16c-.05,0-.12.04-.2.09-.08.05-.14.12-.18.21-.2.47-.38.89-.54,1.27-.16.38-.27.66-.36.85-.11.24-.2.42-.28.55-.08.13-.16.24-.24.31-.08.07-.15.12-.21.14-.06.02-.13.04-.2.04-.13,0-.23-.03-.31-.09-.07-.06-.11-.13-.11-.21Z"/><path class="cls-1" d="m74.97,26.68c-.1,0-.2.03-.3.06-.1.03-.18.08-.23.15-.04.04-.07.1-.11.18s-.08.17-.13.28c-.05.11-.1.21-.15.32-.05.1-.12.21-.2.31.07.08.15.17.25.26.1.1.18.16.25.21.07.04.16.07.29.1.12.03.23.04.3.05v.18h-1.04l-.38-.43c-.06.06-.12.12-.19.19-.07.06-.15.12-.23.17-.09.05-.18.09-.26.12-.09.03-.19.04-.31.04s-.25-.02-.37-.05c-.12-.04-.23-.09-.34-.17-.1-.08-.18-.18-.24-.3-.06-.12-.09-.27-.09-.44,0-.21.06-.4.17-.57.11-.17.32-.35.62-.54-.14-.18-.24-.34-.32-.47-.08-.13-.11-.28-.11-.44,0-.12.02-.22.07-.32.05-.1.11-.18.2-.25.08-.07.17-.12.28-.15s.22-.06.34-.06c.13,0,.25.02.36.06.1.04.19.1.25.17.06.06.1.14.14.22s.05.17.05.25c0,.2-.06.38-.19.52-.13.15-.3.28-.52.39.16.21.31.41.47.59s.3.35.44.52c.11-.18.2-.35.26-.51.06-.16.09-.3.09-.42,0-.05-.04-.1-.12-.13s-.19-.06-.32-.09v-.18h1.35v.18Zm-1.59,1.52c-.16-.2-.33-.42-.53-.65-.2-.24-.35-.44-.47-.6-.14.09-.23.21-.29.33-.06.13-.09.27-.09.44,0,.23.07.42.2.57s.31.23.53.23c.12,0,.24-.03.36-.08.12-.05.22-.13.29-.23Zm-.2-2.34c0-.17-.04-.3-.11-.4-.08-.09-.18-.14-.32-.14-.08,0-.14.02-.2.05-.05.03-.1.07-.13.12-.03.05-.06.1-.07.15-.01.05-.02.1-.02.14,0,.12.03.23.09.35.06.12.15.26.28.43.17-.1.3-.2.37-.32s.11-.25.11-.4Z"/><path class="cls-1" d="m79.37,25.61c.16.17.28.36.37.6s.13.49.13.78-.05.54-.14.78c-.09.23-.22.43-.38.59-.16.16-.34.29-.55.37-.21.09-.43.13-.66.13-.25,0-.48-.05-.69-.14-.21-.09-.39-.22-.55-.39-.15-.16-.27-.36-.36-.6-.09-.23-.13-.48-.13-.75,0-.29.05-.55.14-.78.09-.23.22-.43.38-.59.16-.17.34-.29.55-.38.21-.09.43-.13.66-.13s.46.04.67.13c.21.09.39.22.55.38Zm-.38,2.54c.09-.15.16-.33.21-.52.04-.19.06-.41.06-.65s-.02-.47-.07-.68-.12-.38-.21-.53c-.09-.14-.21-.25-.35-.34-.14-.08-.3-.12-.48-.12-.2,0-.37.05-.52.14-.14.09-.26.22-.35.37-.08.15-.15.32-.19.52-.04.2-.06.41-.06.63,0,.24.02.46.07.66.04.2.11.37.21.52.09.15.21.26.34.35.14.08.3.13.5.13.18,0,.34-.04.49-.13.15-.08.26-.2.35-.35Z"/><path class="cls-1" d="m81.47,28.77h-1.2v-.17s.08,0,.12-.01c.04,0,.08-.01.11-.02.05-.02.08-.04.1-.08s.03-.09.03-.15v-1.54c0-.05-.01-.1-.04-.15-.02-.04-.06-.08-.1-.11-.03-.02-.08-.04-.14-.05-.06-.01-.12-.02-.17-.03v-.17l.88-.06.04.04v2.03c0,.06.01.11.03.15.02.04.06.07.11.09.04.02.07.03.11.04s.07.02.12.02v.17Zm-.32-3.51c0,.1-.03.18-.1.25-.06.07-.14.11-.23.11-.09,0-.16-.03-.22-.1-.06-.07-.09-.15-.09-.23,0-.09.03-.17.09-.24.06-.07.14-.1.22-.1.1,0,.17.03.24.1s.09.14.09.23Z"/><path class="cls-1" d="m84.53,28.77h-1.22v-.17s.08,0,.13-.01c.05,0,.08-.01.12-.02.05-.01.08-.04.1-.08s.03-.09.03-.15v-1.28c0-.18-.04-.31-.13-.41-.08-.1-.19-.14-.31-.14-.09,0-.17.01-.25.04-.07.03-.14.06-.2.1-.06.04-.1.08-.13.13-.03.04-.06.08-.07.11v1.43c0,.06.01.1.04.14.02.04.06.07.11.09.04.02.07.03.12.04.04,0,.08.01.13.02v.17h-1.22v-.17s.08,0,.12-.01c.04,0,.08-.01.11-.02.05-.02.08-.04.1-.08.02-.04.03-.09.03-.15v-1.54c0-.06-.01-.11-.04-.16-.02-.05-.06-.09-.1-.12-.03-.02-.07-.03-.11-.04-.04,0-.09-.02-.14-.02v-.17l.83-.06.04.04v.35h.01s.09-.09.15-.15c.06-.06.12-.1.17-.14.06-.04.14-.07.22-.1.09-.03.18-.04.29-.04.24,0,.42.07.53.22.12.15.17.35.17.6v1.3c0,.06.01.11.03.14.02.04.05.06.1.09.04.02.08.03.1.04s.07.01.12.01v.17Z"/><path class="cls-1" d="m86.37,28.67c-.11.05-.21.08-.31.12-.1.03-.22.05-.36.05-.21,0-.36-.05-.44-.16-.09-.11-.13-.25-.13-.45v-1.69h-.45v-.24h.46v-.78h.46v.78h.72v.24h-.71v1.39c0,.1,0,.19.01.26,0,.07.03.13.05.18.03.05.07.09.12.11.05.03.13.04.22.04.04,0,.1,0,.19-.01.08,0,.14-.02.17-.03v.18Z"/><path class="cls-1" d="m90.89,28.77h-1.21v-.17s.08,0,.12-.01c.04,0,.07-.01.11-.02.05-.01.08-.04.1-.08.02-.04.03-.09.03-.15v-1.29c0-.18-.04-.31-.12-.41-.08-.1-.18-.14-.3-.14-.08,0-.16.01-.23.04-.07.03-.14.06-.2.11-.05.04-.09.08-.12.12-.03.04-.06.08-.07.11v1.44c0,.06.01.11.03.15s.05.07.1.09c.04.01.07.03.1.03s.07.01.12.02v.17h-1.19v-.17s.08,0,.11-.01c.04,0,.07-.01.1-.02.05-.01.08-.04.1-.08.02-.04.03-.09.03-.15v-1.29c0-.18-.04-.31-.12-.41s-.18-.14-.3-.14c-.08,0-.16.01-.23.04-.07.03-.14.06-.2.11-.05.04-.09.08-.12.13s-.06.08-.08.1v1.43c0,.06.01.11.04.14.02.04.06.07.11.09.04.02.07.03.11.04.04,0,.08.01.12.02v.17h-1.21v-.17s.08,0,.12-.01c.04,0,.08-.01.11-.02.05-.02.08-.04.1-.08s.03-.09.03-.15v-1.55c0-.05-.01-.1-.04-.15-.02-.04-.06-.08-.1-.11-.03-.02-.07-.04-.12-.05s-.1-.02-.15-.02v-.17l.83-.06.04.04v.36h.02s.09-.09.15-.15c.06-.06.12-.1.17-.14.06-.04.13-.07.22-.1.09-.03.18-.04.29-.04.16,0,.3.04.42.13s.2.19.25.31c.06-.06.11-.11.16-.16.05-.04.11-.09.18-.14.06-.04.14-.08.23-.11.09-.03.18-.04.29-.04.21,0,.38.07.5.21.12.14.18.35.18.64v1.27c0,.06.01.11.03.15s.05.07.1.09c.04.01.08.03.12.03s.08.01.13.02v.17Z"/><path class="cls-1" d="m93.4,28.19c-.1.2-.24.36-.42.48-.18.12-.38.18-.6.18-.2,0-.38-.04-.53-.11-.15-.07-.28-.17-.37-.29-.1-.12-.17-.26-.22-.42s-.07-.33-.07-.51c0-.16.03-.32.08-.48s.13-.3.23-.42c.1-.12.22-.22.36-.29.14-.07.3-.11.48-.11s.34.03.47.09c.13.06.24.14.32.24.08.09.14.21.17.33s.06.27.06.42v.17h-1.65c0,.16.02.31.05.45.03.13.08.25.15.35.07.1.15.18.26.23.11.06.23.09.38.09s.28-.04.39-.11c.11-.07.21-.2.32-.38l.18.11Zm-.56-.95c0-.09,0-.19-.02-.3-.02-.11-.04-.2-.08-.27-.04-.08-.09-.14-.16-.19s-.15-.07-.26-.07c-.18,0-.32.07-.44.22-.12.15-.18.35-.19.61h1.15Z"/><path class="cls-1" d="m96.45,28.77h-1.22v-.17s.08,0,.13-.01c.05,0,.08-.01.12-.02.05-.01.08-.04.1-.08s.03-.09.03-.15v-1.28c0-.18-.04-.31-.13-.41-.08-.1-.19-.14-.31-.14-.09,0-.17.01-.25.04-.07.03-.14.06-.2.1-.06.04-.1.08-.13.13-.03.04-.06.08-.07.11v1.43c0,.06.01.1.04.14.02.04.06.07.11.09.04.02.07.03.12.04.04,0,.08.01.13.02v.17h-1.22v-.17s.08,0,.12-.01c.04,0,.08-.01.11-.02.05-.02.08-.04.1-.08.02-.04.03-.09.03-.15v-1.54c0-.06-.01-.11-.04-.16-.02-.05-.06-.09-.1-.12-.03-.02-.07-.03-.11-.04-.04,0-.09-.02-.14-.02v-.17l.83-.06.04.04v.35h.01s.09-.09.15-.15c.06-.06.12-.1.17-.14.06-.04.14-.07.22-.1.09-.03.18-.04.29-.04.24,0,.42.07.53.22.12.15.17.35.17.6v1.3c0,.06.01.11.03.14.02.04.05.06.1.09.04.02.08.03.1.04s.07.01.12.01v.17Z"/><path class="cls-1" d="m98.29,28.67c-.11.05-.21.08-.31.12-.1.03-.22.05-.36.05-.21,0-.36-.05-.44-.16-.09-.11-.13-.25-.13-.45v-1.69h-.45v-.24h.46v-.78h.46v.78h.72v.24h-.71v1.39c0,.1,0,.19.01.26,0,.07.03.13.05.18.03.05.07.09.12.11.05.03.13.04.22.04.04,0,.1,0,.19-.01.08,0,.14-.02.17-.03v.18Z"/><path class="cls-1" d="m0,2.38L.5.02h1.05c.25,0,.44.07.57.2.13.13.19.32.19.57,0,.37-.11.74-.34,1.08-.22.34-.54.52-.95.52H0Zm.58-.42h.49c.24,0,.42-.12.55-.37.13-.25.2-.49.2-.73,0-.14-.03-.24-.1-.32-.07-.08-.18-.11-.33-.11h-.48l-.33,1.53Z"/><path class="cls-1" d="m2.73,2.38h-.46l.37-1.75h.44l-.07.32c.15-.24.34-.36.57-.36.01,0,.05,0,.09,0l-.1.47s-.08,0-.11,0c-.13,0-.24.03-.34.09-.1.06-.17.17-.2.33l-.19.91Z"/><path class="cls-1" d="m3.48,2.38l.1-.48h.49l-.1.48h-.49Z"/><path class="cls-1" d="m5.24,1.49h.46c-.03.16-.05.26-.05.32,0,.14.08.21.23.21.1,0,.18-.03.22-.08.05-.05.09-.14.11-.27L6.57.02h.49l-.36,1.68c-.05.24-.15.43-.3.56-.15.13-.35.19-.61.19-.21,0-.37-.04-.47-.12-.1-.08-.15-.21-.15-.38,0-.12.02-.27.07-.45Z"/><path class="cls-1" d="m7.08,1.78l.24-1.15h.46l-.23,1.08s0,.03,0,.05c0,.02,0,.04,0,.06,0,.14.08.21.24.21.1,0,.19-.03.27-.1.08-.07.13-.16.16-.3l.21-1.01h.46l-.37,1.75h-.44l.05-.26c-.17.2-.37.3-.6.3-.15,0-.27-.04-.35-.11-.08-.07-.12-.18-.12-.34,0-.02,0-.04,0-.08,0-.04,0-.08.02-.12Z"/><path class="cls-1" d="m8.9,2.38l.37-1.75h.44l-.06.27c.17-.21.37-.31.6-.31.15,0,.27.04.36.11.09.08.14.18.14.32,0,.05,0,.1-.02.15l-.26,1.21h-.46l.23-1.06c.01-.05.02-.1.02-.14,0-.14-.08-.21-.23-.21-.11,0-.21.04-.29.11-.08.07-.14.17-.16.3l-.21,1h-.46Z"/><path class="cls-1" d="m11.32,1.63s0,.07,0,.1c0,.22.11.33.32.33.15,0,.27-.06.34-.19h.47c-.2.37-.5.56-.91.56-.23,0-.4-.05-.51-.16-.11-.11-.17-.26-.17-.47,0-.32.1-.61.29-.85.19-.24.45-.36.77-.36.44,0,.67.21.67.63,0,.12-.02.26-.06.41h-1.2Zm.08-.3h.71v-.06c0-.2-.09-.3-.28-.3-.1,0-.19.03-.26.09-.07.06-.13.15-.17.27Z"/><path class="cls-1" d="m12.25,3.08l.08-.37h.08s.07-.01.1-.03c.03-.02.05-.07.06-.13l.41-1.92h.46l-.41,1.93c-.04.19-.11.32-.2.4-.09.08-.25.12-.46.12h-.11Zm.77-2.66l.09-.43h.46l-.09.43h-.46Z"/><path class="cls-1" d="m13.64,1.2c.07-.23.18-.39.33-.48.15-.09.33-.13.56-.13.41,0,.62.13.62.4,0,.03,0,.08-.02.14-.01.06-.02.1-.02.13l-.15.73c-.01.05-.02.1-.02.14s0,.06,0,.08c0,.06.02.1.06.12v.07h-.51s0-.06,0-.1c0-.03,0-.06,0-.11-.09.08-.18.14-.27.18-.09.04-.2.07-.33.07-.14,0-.24-.03-.32-.09-.08-.06-.12-.16-.12-.28,0-.17.05-.31.16-.44.1-.13.27-.21.49-.24l.41-.06c.08,0,.13-.03.16-.07.03-.03.05-.08.05-.13,0-.1-.08-.15-.25-.15-.11,0-.19.02-.24.07s-.09.1-.11.18h-.45Zm.96.33c-.05.04-.16.07-.31.09-.14.02-.24.06-.31.12-.06.05-.09.12-.09.2,0,.1.06.15.18.15.1,0,.2-.03.3-.1.1-.07.16-.15.18-.26l.04-.21Z"/><path class="cls-1" d="m15.64.44l.09-.42h.46l-.07.31c-.04.18-.11.32-.21.41-.1.1-.22.16-.37.18l.03-.17c.11-.04.18-.08.22-.13.04-.05.07-.11.09-.19h-.25Z"/><path class="cls-1" d="m16.07,1.82h.47s0,.05,0,.06c0,.13.11.2.34.2.07,0,.14-.02.22-.05.08-.03.12-.08.12-.15,0-.03-.02-.06-.05-.08-.03-.03-.1-.05-.2-.08l-.28-.07c-.16-.04-.27-.09-.33-.15-.06-.06-.09-.13-.09-.22,0-.18.08-.34.23-.48.16-.14.36-.21.62-.21.45,0,.67.16.67.47,0,.03,0,.07,0,.11h-.46c0-.09-.02-.16-.06-.19-.04-.03-.11-.05-.2-.05-.11,0-.19.02-.24.05-.05.03-.07.08-.07.14,0,.07.1.12.3.16.2.04.34.07.41.1.09.04.15.08.19.14.04.06.06.12.06.19,0,.22-.09.4-.27.52-.18.12-.4.18-.65.18-.22,0-.39-.04-.52-.12-.13-.08-.19-.2-.19-.36,0-.02,0-.06,0-.12Z"/><polygon class="cls-3" points="98.29 34.28 67.42 33.6 98.29 32.93 98.29 34.28 98.29 34.28"/><path class="cls-2" d="m99.74,6.11c.35,0,.68.09,1.02.27.33.18.59.43.77.76.19.33.28.68.28,1.04s-.09.7-.27,1.03c-.18.33-.43.58-.76.77-.33.18-.67.27-1.03.27s-.7-.09-1.03-.27c-.33-.18-.58-.44-.76-.77-.18-.33-.27-.67-.27-1.03s.09-.71.28-1.04c.19-.33.44-.58.78-.76.33-.18.67-.27,1.02-.27h0Zm0,.34c-.29,0-.57.08-.85.22-.27.15-.49.36-.64.64-.16.28-.23.56-.23.86s.08.58.23.85c.15.27.37.49.64.64.27.15.56.23.86.23s.58-.08.86-.23c.27-.15.49-.37.64-.64.15-.27.23-.56.23-.85s-.08-.59-.23-.86c-.15-.28-.37-.49-.64-.64-.28-.15-.56-.22-.84-.22h0Zm-.91,2.86v-2.22h.76c.26,0,.45.02.57.06.12.04.21.11.28.22.07.1.1.21.1.32,0,.16-.06.3-.17.42-.12.12-.27.19-.46.2.08.03.14.07.19.12.09.08.2.23.33.44l.27.43h-.44l-.2-.35c-.16-.27-.28-.45-.38-.52-.06-.05-.16-.07-.29-.07h-.21v.94h-.36Zm.36-1.25h.44c.21,0,.35-.03.43-.09.07-.06.11-.14.11-.24,0-.07-.02-.12-.05-.18-.04-.05-.09-.09-.15-.12-.07-.03-.18-.04-.36-.04h-.41v.67h0Z"/></g></svg>